<svg id="Layer_1" data-name="Layer 1" xmlns="http://www.w3.org/2000/svg" viewBox="0 0 1167 924.42"><title>logodark</title><path d="M828.45,378.66a26,26,0,0,1,25.92-25.92h345.85V81a24.45,24.45,0,0,0-24.44-24.45H90.44A24.45,24.45,0,0,0,66,81V769.39a24.44,24.44,0,0,0,24.44,24.44h738Z" transform="translate(-66 -56.58)"/><path d="M237.2,702.91" transform="translate(-66 -56.58)" style="fill:#fff"/><rect x="776.32" y="308.76" width="390.68" height="491.5" rx="23.67" ry="23.67" style="fill:#c13d10"/><polygon points="971.66 422.18 971.66 422.18 971.66 422.18 971.66 422.18 971.66 422.18" style="fill:#5ffff3"/><path d="M1119.63,500c-1-8.36-3.19-16.75-7.82-23.91-4.41-6.83-11.28-12.47-19.4-14.46-.4-.1-.81-.18-1.22-.27a29.85,29.85,0,0,0-5.14-.53s-22.36-1.34-30.19,6.12c-4.74,4.51-17.93,5.27-23.46,0-7.83-7.46-23.63-7.09-24.06-7.06-3,.22-6,.45-7.22.58a44.33,44.33,0,0,0-7.08,1.46,27.55,27.55,0,0,0-11.42,6.46c-6.81,6.34-10.51,15.27-12.65,23.95a82.52,82.52,0,0,0-2.2,25.09c1,15.24,6.19,30.05,13.65,43.56,6.18,11.19,14.44,22,26.33,27.59a33.53,33.53,0,0,0,16.66,3,38.56,38.56,0,0,0,9.88-2c3.08-1.07,6-3.2,9.25-3.64,3.6-.49,5.88,1.92,8.83,3.37a26.11,26.11,0,0,0,5.68,1.95c5.08,1.19,11.33,1.39,16.31-.39.53-.15,1.06-.32,1.58-.49,10.92-3.69,19.44-12.06,26-21.18A99.23,99.23,0,0,0,1119.63,500Z" transform="translate(-66 -56.58)" style="fill:#f9bd0e"/><path d="M1037.66,548.08" transform="translate(-66 -56.58)" style="fill:#5ffff3"/><path d="M1079.13,396.85c-.87.18-7.53,1-8.21,1.19a73.13,73.13,0,0,0-8,2,60.71,60.71,0,0,0-13.87,6.26,33.77,33.77,0,0,0-15.31,20.05,35.05,35.05,0,0,0,2.43,24.33c.72,1.52,3.87,6.64,3.87,6.64h0v0a1.43,1.43,0,0,0,.54.52.59.59,0,0,0,.14,0c.55-.53,1.19-1.12,2-1.88,10.09-9.31,23-29.53,23-29.53s-2.12,3.72-3.77,7.09c-.59,1.2-1.11,2.36-1.46,3.29-1.35,3.55-16.54,19.42-16.54,19.42s-1,.78-2.08,1.64c.14,0,.29-.05.42-.09a39.53,39.53,0,0,0,9.29-4.63q7.38-4.64,14-9.74c4-3.05,7.78-6.25,10.34-10,3.73-5.41,4.66-11.68,4.55-17.92S1079.33,403.06,1079.13,396.85Z" transform="translate(-66 -56.58)" style="fill:#14b400"/><path d="M1193.92,730.82v63H941.19c-13.1,0-30.83-5.73-30.83-34.37s30.83-28.64,30.83-28.64Z" transform="translate(-66 -56.58)" style="fill:#fff"/><path d="M927.59,718.23h267.6V702.46H914.38s-34.25,0-34.25,55.85,19.69,67,34.25,67h280.81V806.54H927.59c-13.87,0-32.63-8-32.63-48.17S927.59,718.23,927.59,718.23Z" transform="translate(-66 -56.58)" style="fill:#fffff3"/><path d="M1170,630v37.8H956.57c-11.06,0-26-3.43-26-20.62s26-17.18,26-17.18Z" transform="translate(-66 -56.58)" style="fill:#fff"/><path d="M945.2,616.11H1170V604.79H934.1s-28.76,0-28.76,40.1S921.88,693,934.1,693H1170V679.52H945.2c-11.65,0-27.41-5.77-27.41-34.59S945.2,616.11,945.2,616.11Z" transform="translate(-66 -56.58)" style="fill:#fffff3"/><ellipse cx="527.18" cy="105.66" rx="45.04" ry="42.25" style="fill:#ff0"/><path d="M546.58,293.22c-13,0-25.73-6.15-31.45-17.13-13.34-25.62,6-50.93,31.7-50.93h74c18.84,0,34.11,14.42,34.11,32.21V664.24h36.28c13,0,25.73,6.15,31.45,17.13,13.35,25.62-6,50.94-31.69,50.94H546.58c-13,0-25.73-6.15-31.45-17.14-13.34-25.62,6-50.93,31.7-50.93h36v-371Z" transform="translate(-66 -56.58)" style="fill:#ff0"/><rect x="463" y="759.42" width="189" height="101"/><path d="M417,981H831s22-5,22-23-23-21-23-21H417s-23,7-23,24S417,981,417,981Z" transform="translate(-66 -56.58)"/></svg>