<svg xmlns="http://www.w3.org/2000/svg" width="1366" height="78.635" viewBox="0 0 1366 78.635"><defs><style>.a{fill:#233151;fill-rule:evenodd;}</style></defs><g transform="translate(0 -144.214)"><path class="a" d="M1366,144.532v78.413H0V153.951c64.387,47.639,554.938,43.121,697.229,43.121s389.659-43.121,451.065-43.121S1256.436,197.073,1366,144.532Z" transform="translate(0 -0.097)"/><path class="a" d="M1474.188,154.988c12.778-1.233,27.5-5.195,26.78-7.786s-10.607-2.652-27.475-1.141-26.293,3.826-25.041,8.347S1461.41,156.222,1474.188,154.988Z" transform="translate(-416.962 -0.258)"/><path class="a" d="M1546.225,145.257c.237.932-1.092,2.065-2.949,2.531s-3.568.088-3.8-.843,1.085-2.065,2.949-2.531,3.568-.088,3.8.843Z" transform="translate(-438.151 0)"/></g></svg>