<svg id="Layer_1" data-name="Layer 1" xmlns="http://www.w3.org/2000/svg" viewBox="0 0 471 15.18"><title>bg2</title><path d="M186.58,698" transform="translate(-288 -643)" style="fill:#fff"/><path d="M288,643v2c.54,0,1.07,0,1.61,0a134.78,134.78,0,0,1,35.17,4.63,128,128,0,0,1,16.27,5.6c2.06.87,4.79,2.87,7,2.9,2.06,0,4-1.71,5.8-2.49q3.41-1.47,6.88-2.73a127.21,127.21,0,0,1,14.43-4.31,135.12,135.12,0,0,1,31.1-3.6c18.74,0,37.86,3.69,54.8,11.85a8,8,0,0,0,3.77,1.13,7.88,7.88,0,0,0,2.76-.84A128.1,128.1,0,0,1,523,645a134,134,0,0,1,41.49,6.51c5,1.64,11.55,6.19,16.67,6.55,4,.28,7.87-3.22,11.45-4.58a128.85,128.85,0,0,1,14.89-4.62,136.21,136.21,0,0,1,63.22-.28,129,129,0,0,1,14,4.15c3.62,1.3,9.31,5.34,13,5.48,3.91.14,10.14-4.08,13.94-5.42a138.31,138.31,0,0,1,14.79-4.33A131.86,131.86,0,0,1,756.39,645c.88,0,1.74,0,2.61,0v-2Z" transform="translate(-288 -643)" style="fill:#f6f6f6"/></svg>