<svg xmlns="http://www.w3.org/2000/svg" width="1366" height="83.211" viewBox="0 0 1366 83.211"><defs><style>.a{fill:#90a711;fill-rule:evenodd;}</style></defs><g transform="translate(0 -123.04)"><path class="a" d="M1366,162.788V212.3H0V162.419c12.032-.325,29.523,3.789,56.027,10.024,24.232,5.7,56,13.173,98.018,20.646,69.5,12.36,107.609-5.289,145.354-22.77C327.918,157.11,356.23,144,397.72,144c30.513,0,68.511,8.874,113.5,19.38,97.139,22.687,226.863,52.982,384.167,17.971C1066.554,143.252,1236.742,141.163,1366,162.788Z" transform="translate(0 -6.047)"/><path class="a" d="M567.428,128.413c-.47,2.482,5.338,3,13.723,3.753,5.308.475,11.649,1.043,18.085,2.26,5.419,1.024,10.3,2.24,14.444,3.272,8.553,2.131,13.966,3.478,14.482.748.766-4.054-12.222-11-28.824-14.137S568.194,124.359,567.428,128.413Z" transform="translate(-163.719)"/></g></svg>