<?xml version="1.0" encoding="utf-8"?>
<!-- Generator: Adobe Illustrator 22.0.1, SVG Export Plug-In . SVG Version: 6.00 Build 0)  -->
<svg version="1.1" id="f196eae1-e898-45a8-a656-bd14eee244bb"
	 xmlns="http://www.w3.org/2000/svg" xmlns:xlink="http://www.w3.org/1999/xlink" x="0px" y="0px" viewBox="0 0 862 703.2"
	 style="enable-background:new 0 0 862 703.2;" xml:space="preserve">
<style type="text/css">
	.st0{opacity:0.5;}
	.st1{fill:url(#SVGID_1_);}
	.st2{fill:#F5F5F5;}
	.st3{fill:#C13D10;}
	.st4{fill:#E0E0E0;}
	.st5{fill:url(#SVGID_2_);}
	.st6{fill:#FFFFFF;}
	.st7{fill:none;stroke:#535461;stroke-miterlimit:10;}
	.st8{fill:none;stroke:#535461;stroke-miterlimit:10;stroke-dasharray:12.58,12.58;}
	.st9{fill:none;stroke:#535461;stroke-miterlimit:10;stroke-dasharray:12.44,12.44;}
	.st10{fill:url(#SVGID_3_);}
	.st11{fill:#F7F1DF;}
	.st12{fill:#FDD835;}
	.st13{opacity:0.1;enable-background:new    ;}
	.st14{fill:#FDB797;}
	.st15{fill:url(#SVGID_4_);}
	.st16{fill:#333333;}
</style>
<title>live collaboration</title>
<g class="st0">
	
		<linearGradient id="SVGID_1_" gradientUnits="userSpaceOnUse" x1="232.855" y1="256.94" x2="232.855" y2="686.62" gradientTransform="matrix(1 0 0 -1 0 706)">
		<stop  offset="0" style="stop-color:#808080;stop-opacity:0.25"/>
		<stop  offset="0.54" style="stop-color:#808080;stop-opacity:0.12"/>
		<stop  offset="1" style="stop-color:#808080;stop-opacity:0.1"/>
	</linearGradient>
	<path class="st1" d="M4.5,19.4h456.7c2.5,0,4.5,2,4.5,4.5v420.7c0,2.5-2,4.5-4.5,4.5H4.5c-2.5,0-4.5-2-4.5-4.5V23.9
		C0,21.4,2,19.4,4.5,19.4z"/>
</g>
<path class="st2" d="M10.2,22.7h446c2.5,0,4.5,2,4.5,4.5v410.3c0,2.5-2,4.5-4.5,4.5h-446c-2.5,0-4.5-2-4.5-4.5V27.2
	C5.7,24.7,7.7,22.7,10.2,22.7z"/>
<path class="st3" d="M45.3,91.8H113c2.5,0,4.5,2,4.5,4.5v60.1c0,2.5-2,4.5-4.5,4.5H45.3c-2.5,0-4.5-2-4.5-4.5V96.3
	C40.8,93.8,42.8,91.8,45.3,91.8z"/>
<path class="st4" d="M143.9,91.8h298.1c1.9,0,3.4,1.5,3.4,3.4V96c0,1.9-1.5,3.4-3.4,3.4H143.9c-1.9,0-3.4-1.5-3.4-3.4v-0.8
	C140.5,93.3,142,91.8,143.9,91.8z"/>
<path class="st4" d="M143.9,114.8h298.1c1.9,0,3.4,1.5,3.4,3.4v0.8c0,1.9-1.5,3.4-3.4,3.4H143.9c-1.9,0-3.4-1.5-3.4-3.4v-0.8
	C140.5,116.3,142,114.8,143.9,114.8z"/>
<path class="st4" d="M36.5,198.3h405.6c1.9,0,3.4,1.5,3.4,3.4v0.8c0,1.9-1.5,3.4-3.4,3.4H36.5c-1.9,0-3.4-1.5-3.4-3.4v-0.8
	C33.1,199.9,34.6,198.3,36.5,198.3z"/>
<path class="st4" d="M36.5,221.4h405.6c1.9,0,3.4,1.5,3.4,3.4v0.8c0,1.9-1.5,3.4-3.4,3.4H36.5c-1.9,0-3.4-1.5-3.4-3.4v-0.8
	C33.1,222.9,34.6,221.4,36.5,221.4z"/>
<path class="st4" d="M36.5,252.1h405.6c1.9,0,3.4,1.5,3.4,3.4v0.8c0,1.9-1.5,3.4-3.4,3.4H36.5c-1.9,0-3.4-1.5-3.4-3.4v-0.8
	C33.1,253.6,34.6,252.1,36.5,252.1z"/>
<path class="st4" d="M36.5,275.1h231c1.9,0,3.4,1.5,3.4,3.4v0.8c0,1.9-1.5,3.4-3.4,3.4h-231c-1.9,0-3.4-1.5-3.4-3.4v-0.8
	C33.1,276.6,34.6,275.1,36.5,275.1z"/>
<path class="st4" d="M36.5,305.7h405.6c1.9,0,3.4,1.5,3.4,3.4v0.8c0,1.9-1.5,3.4-3.4,3.4H36.5c-1.9,0-3.4-1.5-3.4-3.4v-0.8
	C33.1,307.2,34.6,305.7,36.5,305.7z"/>
<path class="st4" d="M36.5,328.7h405.6c1.9,0,3.4,1.5,3.4,3.4v0.8c0,1.9-1.5,3.4-3.4,3.4H36.5c-1.9,0-3.4-1.5-3.4-3.4v-0.8
	C33.1,330.2,34.6,328.7,36.5,328.7z"/>
<path class="st4" d="M36.5,359.4h405.6c1.9,0,3.4,1.5,3.4,3.4v0.8c0,1.9-1.5,3.4-3.4,3.4H36.5c-1.9,0-3.4-1.5-3.4-3.4v-0.8
	C33.1,360.9,34.6,359.4,36.5,359.4z"/>
<path class="st4" d="M36.5,382.4h231c1.9,0,3.4,1.5,3.4,3.4v0.8c0,1.9-1.5,3.4-3.4,3.4h-231c-1.9,0-3.4-1.5-3.4-3.4v-0.8
	C33.1,384,34.6,382.4,36.5,382.4z"/>
<g class="st0">
	
		<linearGradient id="SVGID_2_" gradientUnits="userSpaceOnUse" x1="303.145" y1="157.65" x2="303.145" y2="587.33" gradientTransform="matrix(1 0 0 -1 0 706)">
		<stop  offset="0" style="stop-color:#808080;stop-opacity:0.25"/>
		<stop  offset="0.54" style="stop-color:#808080;stop-opacity:0.12"/>
		<stop  offset="1" style="stop-color:#808080;stop-opacity:0.1"/>
	</linearGradient>
	<path class="st5" d="M74.8,118.7h456.7c2.5,0,4.5,2,4.5,4.5v420.7c0,2.5-2,4.5-4.5,4.5H74.8c-2.5,0-4.5-2-4.5-4.5V123.2
		C70.3,120.7,72.3,118.7,74.8,118.7z"/>
</g>
<path class="st6" d="M80.5,122h446c2.5,0,4.5,2,4.5,4.5v410.3c0,2.5-2,4.5-4.5,4.5h-446c-2.5,0-4.5-2-4.5-4.5V126.5
	C76,124,78,122,80.5,122z"/>
<path class="st3" d="M115.5,191.1h67.7c2.5,0,4.5,2,4.5,4.5v60.1c0,2.5-2,4.5-4.5,4.5h-67.7c-2.5,0-4.5-2-4.5-4.5v-60.1
	C111,193.1,113,191.1,115.5,191.1z"/>
<path class="st4" d="M214.2,191.1h298.1c1.9,0,3.4,1.5,3.4,3.4v0.8c0,1.9-1.5,3.4-3.4,3.4H214.2c-1.9,0-3.4-1.5-3.4-3.4v-0.8
	C210.8,192.6,212.3,191.1,214.2,191.1z"/>
<path class="st4" d="M214.2,214.1h298.1c1.9,0,3.4,1.5,3.4,3.4v0.8c0,1.9-1.5,3.4-3.4,3.4H214.2c-1.9,0-3.4-1.5-3.4-3.4v-0.8
	C210.8,215.6,212.3,214.1,214.2,214.1z"/>
<path class="st4" d="M106.8,297.6h405.6c1.9,0,3.4,1.5,3.4,3.4v0.8c0,1.9-1.5,3.4-3.4,3.4H106.8c-1.9,0-3.4-1.5-3.4-3.4v-0.8
	C103.4,299.2,104.9,297.6,106.8,297.6z"/>
<path class="st4" d="M106.8,320.6h405.6c1.9,0,3.4,1.5,3.4,3.4v0.8c0,1.9-1.5,3.4-3.4,3.4H106.8c-1.9,0-3.4-1.5-3.4-3.4v-0.8
	C103.4,322.2,104.9,320.6,106.8,320.6z"/>
<path class="st4" d="M106.8,351.3h405.6c1.9,0,3.4,1.5,3.4,3.4v0.8c0,1.9-1.5,3.4-3.4,3.4H106.8c-1.9,0-3.4-1.5-3.4-3.4v-0.8
	C103.4,352.9,104.9,351.3,106.8,351.3z"/>
<path class="st4" d="M106.8,374.4h231c1.9,0,3.4,1.5,3.4,3.4v0.8c0,1.9-1.5,3.4-3.4,3.4h-231c-1.9,0-3.4-1.5-3.4-3.4v-0.8
	C103.4,375.9,104.9,374.4,106.8,374.4z"/>
<path class="st4" d="M106.8,405h405.6c1.9,0,3.4,1.5,3.4,3.4v0.8c0,1.9-1.5,3.4-3.4,3.4H106.8c-1.9,0-3.4-1.5-3.4-3.4v-0.8
	C103.4,406.5,104.9,405,106.8,405z"/>
<path class="st4" d="M106.8,428h405.6c1.9,0,3.4,1.5,3.4,3.4v0.8c0,1.9-1.5,3.4-3.4,3.4H106.8c-1.9,0-3.4-1.5-3.4-3.4v-0.8
	C103.4,429.5,104.9,428,106.8,428z"/>
<path class="st4" d="M106.8,458.7h405.6c1.9,0,3.4,1.5,3.4,3.4v0.8c0,1.9-1.5,3.4-3.4,3.4H106.8c-1.9,0-3.4-1.5-3.4-3.4v-0.8
	C103.4,460.2,104.9,458.7,106.8,458.7z"/>
<path class="st4" d="M106.8,481.7h231c1.9,0,3.4,1.5,3.4,3.4v0.8c0,1.9-1.5,3.4-3.4,3.4h-231c-1.9,0-3.4-1.5-3.4-3.4v-0.8
	C103.4,483.2,104.9,481.7,106.8,481.7z"/>
<line class="st7" x1="536" y1="276.7" x2="540.4" y2="272.6"/>
<line class="st8" x1="549.5" y1="264" x2="709.5" y2="112.6"/>
<line class="st7" x1="714" y1="108.3" x2="718.4" y2="104.2"/>
<line class="st7" x1="537.6" y1="428" x2="542.1" y2="432"/>
<line class="st9" x1="551.4" y1="440.3" x2="713.4" y2="585.8"/>
<line class="st7" x1="718" y1="589.9" x2="722.5" y2="593.9"/>
<g class="st0">
	
		<linearGradient id="SVGID_3_" gradientUnits="userSpaceOnUse" x1="730.3" y1="2.8" x2="730.3" y2="261.38" gradientTransform="matrix(1 0 0 -1 0 706)">
		<stop  offset="0" style="stop-color:#808080;stop-opacity:0.25"/>
		<stop  offset="0.54" style="stop-color:#808080;stop-opacity:0.12"/>
		<stop  offset="1" style="stop-color:#808080;stop-opacity:0.1"/>
	</linearGradient>
	<circle class="st10" cx="730.3" cy="573.9" r="129.3"/>
</g>
<circle class="st11" cx="730.3" cy="573.2" r="126.6"/>
<path class="st12" d="M800.3,584.6c0,46.6-30.4,98.5-67.9,98.5s-67.9-51.9-67.9-98.5s30.4-70.3,67.9-70.3S800.3,538,800.3,584.6z"/>
<path class="st3" d="M730.7,700.1c24.7,0,48.9-7.2,69.6-20.8c-4.7-25.5-22.4-26.9-22.4-26.9H680c0,0-16.8,1.4-22,24.8
	C679.3,692.2,704.7,700.2,730.7,700.1z"/>
<path class="st13" d="M709.6,621.3h39.1l0,0v33.3c0,9.7-7.9,17.5-17.5,17.5h-4.1c-9.7,0-17.5-7.9-17.5-17.5L709.6,621.3L709.6,621.3
	z"/>
<path class="st14" d="M713,619.8h32.5c1.9,0,3.3,1.5,3.3,3.3v30c0,9.7-7.9,17.5-17.5,17.5h-4.1c-9.7,0-17.5-7.9-17.5-17.5v-30
	C709.7,621.3,711.2,619.8,713,619.8z"/>
<path class="st13" d="M709.7,636.1c12.6,4.7,26.5,4.8,39.1,0.1v-4.8h-39.1V636.1z"/>
<circle class="st14" cx="729.3" cy="582.6" r="56.1"/>
<ellipse class="st14" cx="674.4" cy="580.2" rx="5.2" ry="9.8"/>
<ellipse class="st14" cx="784" cy="580.2" rx="5.2" ry="9.8"/>
<path class="st13" d="M679.6,552.2c0,0,31.8,43.4,104.5,28.6c0,0,8.1-9.9-11.7-40.2C752.6,510.2,697.6,515.1,679.6,552.2z"/>
<path class="st12" d="M679.6,551.5c0,0,31.8,43.4,104.5,28.6c0,0,8.1-9.9-11.7-40.2C752.6,509.5,697.6,514.4,679.6,551.5z"/>
<g class="st0">
	
		<linearGradient id="SVGID_4_" gradientUnits="userSpaceOnUse" x1="732.71" y1="447.42" x2="732.71" y2="706" gradientTransform="matrix(1 0 0 -1 0 706)">
		<stop  offset="0" style="stop-color:#808080;stop-opacity:0.25"/>
		<stop  offset="0.54" style="stop-color:#808080;stop-opacity:0.12"/>
		<stop  offset="1" style="stop-color:#808080;stop-opacity:0.1"/>
	</linearGradient>
	<circle class="st15" cx="732.7" cy="129.3" r="129.3"/>
</g>
<circle class="st11" cx="733" cy="128.5" r="126.6"/>
<path class="st3" d="M733.1,255.5c24.7,0,48.9-7.2,69.6-20.8c-4.7-25.5-22.4-26.9-22.4-26.9h-97.9c0,0-16.8,1.4-22,24.8
	C681.7,247.6,707,255.6,733.1,255.5z"/>
<circle class="st16" cx="731.7" cy="125.8" r="61.1"/>
<path class="st13" d="M712,176.7h39.1l0,0V210c0,9.7-7.9,17.5-17.5,17.5h-4.1c-9.7,0-17.5-7.9-17.5-17.5c0,0,0,0,0,0V176.7
	L712,176.7z"/>
<path class="st14" d="M715.4,175.2h32.5c1.9,0,3.3,1.5,3.3,3.4v30c0,9.7-7.9,17.5-17.5,17.5h-4.1c-9.7,0-17.6-7.8-17.6-17.5
	c0,0,0,0,0,0v-30C712,176.7,713.5,175.2,715.4,175.2C715.4,175.2,715.4,175.2,715.4,175.2z"/>
<path class="st13" d="M712.1,191.5c12.6,4.7,26.5,4.8,39.1,0.1v-4.8h-39.1V191.5z"/>
<circle class="st14" cx="731.7" cy="138" r="56.1"/>
<path class="st13" d="M691.8,86.9c0,0,23.6,48,90.3,20.1l-15.5-24.4l-27.5-9.9L691.8,86.9z"/>
<path class="st16" d="M691.8,86.2c0,0,23.6,48,90.3,20.1L766.6,82l-27.5-9.9L691.8,86.2z"/>
<path class="st16" d="M691.6,83c1.6-4.9,4.3-9.4,8-13.1c11-10.9,29.1-13.2,38.4-25.6c2,3.5,0.8,7.9-2.7,9.9
	c-0.2,0.1-0.4,0.2-0.6,0.3c8.9-0.1,19.2-0.8,24.2-8.2c2.5,5.9,1.4,12.7-2.8,17.6c7.9,0.4,16.3,5.7,16.8,13.6
	c0.3,5.2-3,10.2-7.3,13.2s-9.5,4.4-14.7,5.5C736,99.5,681.8,113.4,691.6,83z"/>
<ellipse class="st14" cx="675.6" cy="137.9" rx="5.2" ry="9.8"/>
<ellipse class="st14" cx="787.8" cy="137.9" rx="5.2" ry="9.8"/>
</svg>
