<svg xmlns="http://www.w3.org/2000/svg" width="128.941" height="102.358" viewBox="0 0 128.941 102.358"><defs><style>.a{fill:#f6f6f6;}</style></defs><g transform="translate(-676.481 -2484.642)"><path class="a" d="M326.719,220.5a40.09,40.09,0,0,1,8.523-24.774,40.263,40.263,0,1,0,5.211,78.542,49.131,49.131,0,0,0,24.239,3.846l-12.864-9.153a40.488,40.488,0,0,0,9.247-8.629A40.272,40.272,0,0,1,326.719,220.5Z" transform="translate(387.372 2308.663)"/><path class="a" d="M535.042,176.554a40.265,40.265,0,0,0-72.006-24.774,40.263,40.263,0,0,1,25.833,64.606,40.524,40.524,0,0,0,17.023-1.122,49.131,49.131,0,0,0,24.239,3.846l-12.864-9.153A40.224,40.224,0,0,0,535.042,176.554Z" transform="translate(270.381 2348.354)"/></g></svg>