<svg id="abc544d7-1a04-40cc-926f-7ea71d989639" xmlns="http://www.w3.org/2000/svg" viewBox="0 0 886 654.3"><title>environment</title><path d="M377.7,443.68s117.66-14.11,158.84-36.47,347.11-32.95,347.11,36.47-351.81,100-351.81,100L347.1,533.11Z" style="fill:#fbbebe"/><path d="M377.7,443.68s117.66-14.11,158.84-36.47,347.11-32.95,347.11,36.47-351.81,100-351.81,100L347.1,533.11Z" style="opacity:0.10000000149011612;isolation:isolate"/><path d="M411.82,430.74l-24.71,71.78L0,507.22V401.33s148.26-34.13,265.92,38.83C265.92,440.16,404.76,423.68,411.82,430.74Z" style="fill:#ffc107"/><path d="M411.82,430.63,387.11,502.4,0,507.11V401.21S148.26,367.09,265.92,440C265.92,440,404.76,423.57,411.82,430.63Z" style="opacity:0.10000000149011612;isolation:isolate"/><path d="M854.4,400.74c0,4-9,7-9.87,10.85s4.46,9.68,2.77,13.34a72.23,72.23,0,0,1-6.17,10.73c-2.21,3.17-9.06,2.71-11.86,5.68a93.44,93.44,0,0,1-8.71,7.58c-3,2.48-7,3-10.4,5.28-3.22,2.16-2.83,10.11-6.39,12.08-3.4,1.89-8.61.37-12.3,2.07s-5.41,7.51-9.2,8.95-8.17.79-12,2-7.92,1-11.83,1.95-6.71,6.65-10.67,7.42-8.37-1.25-12.35-.68S727,483.61,723,484s-7.61,2.65-11.63,2.83-7.82,1.92-11.84,1.92-8.15,3.76-12.08,3.58-7.65-5.89-11.57-6.26-8.78,5.59-12.67,5-7.14-6.4-11-7.15-9.07,3.4-12.88,2.45-6.24-7.77-10-8.93-8.65.42-12.3-1-8.4-1.21-11.95-2.84-6.34-5.71-9.74-7.59c-3.56-2-5.2-6.87-8.42-9-3.38-2.27-8.54-2-11.52-4.46-3.14-2.61-9-2.75-11.68-5.56-2.81-3-3.94-8-6.16-11.14-2.33-3.34,2.25-10.41.62-13.94s-8.76-5.15-9.63-9a56.37,56.37,0,0,1-1.39-12.21c0-4,6-7.08,6.93-10.95s-3.57-9.34-1.88-13,1.42-9,3.75-12.3c2.22-3.17,7.75-4.41,10.55-7.39,2.65-2.81,7.4-3.59,10.54-6.21,3-2.47,2.6-9.94,6-12.22,3.21-2.16,7.71-3.15,11.27-5.13,3.4-1.88,8.22-1.56,11.91-3.26,3.54-1.63,9.09,1.58,12.87.14s6.62-4.42,10.48-5.62,5.49-10,9.41-11,8.48.63,12.43-.14,9,6.25,13,5.69,6.8-9.9,10.81-10.27,8.33,4.47,12.34,4.29,7.89,2.65,11.9,2.65,8-3.89,12-3.71,7.55,5.33,11.47,5.69,8.92-7.45,12.81-6.89,7.07,6.61,10.92,7.36,8.91-3,12.71-2,6.28,7.4,10,8.57,6.24,5.73,9.9,7.12,10.82-5.29,14.36-3.67c3.69,1.7,6.88,4.63,10.28,6.52,3.56,2,9.22,1,12.44,3.14,3.39,2.28,4.22,8.4,7.2,10.88,3.14,2.61,8.32,3.4,11,6.21,2.8,3,3.19,8.31,5.41,11.48,2.33,3.34,2.26,8,3.88,11.5s6.21,6.43,7.08,10.27S854.4,396.73,854.4,400.74Z" style="fill:#233151"/><path d="M430.65,474.28S563.6,406,649.5,431.92s205.91-18.83,220-3.53,34.12,180-135.31,189.44-314.16-28.24-314.16-28.24Z" style="fill:#fbbebe"/><path d="M399.33,467s52.49-3.32,50.14,15.5-4.71,164.73-18.82,168.26-125.9,3.53-171.79,3.53H0V428.73s183.55-10.93,275.33,35C275.33,463.69,385.67,462.09,399.33,467Z" style="fill:#ffc107"/><path d="M645.24,114.18a27.06,27.06,0,0,0-23.31,16.3c-5.83,14.09,1.68,30.63,12.94,40.91s25.74,16.14,38.89,23.86c17.66,10.37,33.53,24.76,42.36,43.24s9.78,41.36-.61,59c-9.64,16.39-27.17,26.19-43.89,35.23" style="fill:none;stroke:#3f3d56;stroke-miterlimit:10"/><path d="M692.3,28.29A27,27,0,0,0,669,44.58c-5.83,14.09,1.67,30.64,12.94,40.91s25.73,16.15,38.88,23.87c17.66,10.37,33.53,24.76,42.37,43.23s9.78,41.36-.61,59c-9.64,16.38-27.17,26.19-43.89,35.23" style="fill:none;stroke:#3f3d56;stroke-miterlimit:10"/><path d="M847.05,48a27.05,27.05,0,0,0-28.41-1.38c-13.23,7.57-17.43,25.25-14.81,40.27S814.3,115.45,820,129.61c7.62,19,11.36,40.1,7,60.12S809.41,228.42,790.4,236c-17.65,7.05-37.52,4.07-56.27,1" style="fill:none;stroke:#3f3d56;stroke-miterlimit:10"/><ellipse cx="710.68" cy="211.89" rx="28.24" ry="13.72" style="fill:#90a711"/><ellipse cx="707.15" cy="209.54" rx="28.24" ry="13.72" style="fill:none;stroke:#3f3d56;stroke-miterlimit:10"/><ellipse cx="771.87" cy="200.12" rx="28.24" ry="13.72" style="fill:#90a711"/><ellipse cx="768.34" cy="197.77" rx="28.24" ry="13.72" style="fill:none;stroke:#3f3d56;stroke-miterlimit:10"/><ellipse cx="781.28" cy="251.89" rx="28.24" ry="13.72" style="fill:#90a711"/><ellipse cx="777.75" cy="249.54" rx="28.24" ry="13.72" style="fill:none;stroke:#3f3d56;stroke-miterlimit:10"/><ellipse cx="775.4" cy="122.47" rx="28.24" ry="13.72" style="fill:#90a711"/><ellipse cx="771.87" cy="120.11" rx="28.24" ry="13.72" style="fill:none;stroke:#3f3d56;stroke-miterlimit:10"/><ellipse cx="704.8" cy="114.23" rx="28.24" ry="13.72" style="fill:#90a711"/><ellipse cx="701.27" cy="111.88" rx="28.24" ry="13.72" style="fill:none;stroke:#3f3d56;stroke-miterlimit:10"/><ellipse cx="736.57" cy="84.81" rx="28.24" ry="13.72" style="fill:#90a711"/><ellipse cx="733.04" cy="82.46" rx="28.24" ry="13.72" style="fill:none;stroke:#3f3d56;stroke-miterlimit:10"/><ellipse cx="805.99" cy="90.7" rx="28.24" ry="13.72" style="fill:#90a711"/><ellipse cx="802.46" cy="88.34" rx="28.24" ry="13.72" style="fill:none;stroke:#3f3d56;stroke-miterlimit:10"/><ellipse cx="857.76" cy="129.53" rx="28.24" ry="13.72" style="fill:#90a711"/><ellipse cx="854.23" cy="127.17" rx="28.24" ry="13.72" style="fill:none;stroke:#3f3d56;stroke-miterlimit:10"/><ellipse cx="675.38" cy="61.28" rx="28.24" ry="13.72" style="fill:#90a711"/><ellipse cx="671.85" cy="58.93" rx="28.24" ry="13.72" style="fill:none;stroke:#3f3d56;stroke-miterlimit:10"/><ellipse cx="693.03" cy="16.57" rx="28.24" ry="13.72" style="fill:#90a711"/><ellipse cx="689.5" cy="14.22" rx="28.24" ry="13.72" style="fill:none;stroke:#3f3d56;stroke-miterlimit:10"/><ellipse cx="856.58" cy="49.51" rx="28.24" ry="13.72" style="fill:#90a711"/><ellipse cx="853.05" cy="47.16" rx="28.24" ry="13.72" style="fill:none;stroke:#3f3d56;stroke-miterlimit:10"/><ellipse cx="596.55" cy="157.76" rx="28.24" ry="13.72" style="fill:#90a711"/><ellipse cx="593.02" cy="155.41" rx="28.24" ry="13.72" style="fill:none;stroke:#3f3d56;stroke-miterlimit:10"/><ellipse cx="694.21" cy="150.7" rx="28.24" ry="13.72" style="fill:#90a711"/><ellipse cx="690.68" cy="148.35" rx="28.24" ry="13.72" style="fill:none;stroke:#3f3d56;stroke-miterlimit:10"/><ellipse cx="822.46" cy="161.29" rx="28.24" ry="13.72" style="fill:#90a711"/><ellipse cx="818.93" cy="158.94" rx="28.24" ry="13.72" style="fill:none;stroke:#3f3d56;stroke-miterlimit:10"/><ellipse cx="754.22" cy="166" rx="28.24" ry="13.72" style="fill:#90a711"/><ellipse cx="750.69" cy="163.65" rx="28.24" ry="13.72" style="fill:none;stroke:#3f3d56;stroke-miterlimit:10"/><ellipse cx="758.92" cy="48.34" rx="28.24" ry="13.72" style="fill:#90a711"/><ellipse cx="755.39" cy="45.99" rx="28.24" ry="13.72" style="fill:none;stroke:#3f3d56;stroke-miterlimit:10"/><ellipse cx="637.73" cy="121.29" rx="28.24" ry="13.72" style="fill:#90a711"/><ellipse cx="634.2" cy="118.94" rx="28.24" ry="13.72" style="fill:none;stroke:#3f3d56;stroke-miterlimit:10"/><ellipse cx="654.2" cy="174.24" rx="28.24" ry="13.72" style="fill:#90a711"/><ellipse cx="650.67" cy="171.88" rx="28.24" ry="13.72" style="fill:none;stroke:#3f3d56;stroke-miterlimit:10"/></svg>