<svg xmlns="http://www.w3.org/2000/svg" xmlns:xlink="http://www.w3.org/1999/xlink" viewBox="0 0 1125.52 633.65"><defs><linearGradient id="linear-gradient" x1="466.93" y1="-103.78" x2="466.93" y2="108.54" gradientTransform="matrix(1, 0, 0, -1, -36.6, 502.8)" gradientUnits="userSpaceOnUse"><stop offset="0" stop-color="gray" stop-opacity="0.25"/><stop offset="0.54" stop-color="gray" stop-opacity="0.12"/><stop offset="1" stop-color="gray" stop-opacity="0.1"/></linearGradient><linearGradient id="linear-gradient-2" x1="-229.59" y1="-78.16" x2="-229.59" y2="363.99" gradientTransform="matrix(1, -0.04, -0.04, -1, 1047.73, 520.56)" xlink:href="#linear-gradient"/><linearGradient id="linear-gradient-3" x1="197.36" y1="-108.63" x2="197.36" y2="296.27" xlink:href="#linear-gradient"/></defs><title>notifications</title><path d="M650.4,130c-70.76.54-138.73-15.45-203.73-33.27s-129.47-37.83-198.84-46c-44.62-5.28-95.4-4.45-130.48,16C83.6,86.42,73.62,118.64,68.69,148.38c-3.71,22.38-5.52,45.86,7.54,66.23,9.07,14.13,24.69,25.73,35.68,39.19,38.26,46.84,14.54,107.11-23.4,155.51C70.74,432,49.94,453.8,36.4,477.8s-19.18,51.11-5.79,74.6c13.28,23.29,43.54,40.06,76.08,51.45C172.79,627,249.86,631.55,324.92,633c166.14,3.24,332.71-6.64,498.82-16.51,61.48-3.65,123.23-7.33,183.48-17.15,33.46-5.45,67.93-13.43,91.75-30.6,30.24-21.8,36.68-57.12,15-82.34-36.37-42.29-133-49.68-159-95.53-14.31-25.24-1.57-54.37,17-78.91,39.94-52.65,108.34-100,110-158.63,1.11-40.25-34-79.28-86.68-96.43C940,38.92,864.46,44.13,825.4,78.54,785.24,113.91,712.9,129.56,650.4,130Z" transform="translate(-1.25 0)" style="fill:#ffc107;opacity:0.10000000149011612;isolation:isolate"/><path d="M929,550.93s-12.29-8.11-24.47-2.35c0,0,3.75,7.23,19.17,6.54Z" transform="translate(-1.25 0)" style="fill:#ffc107"/><path d="M930.48,551.36s3.74,14.24-5.63,23.93c0,0-5.64-5.87-.05-20.25Z" transform="translate(-1.25 0)" style="fill:#ffc107"/><path d="M945.81,537.69s-.91-12.11-28.26-8.1c0,0-.12,7.82,9.48,11.52S941,541.69,945.81,537.69Z" transform="translate(-1.25 0)" style="fill:#ffc107"/><path d="M947.49,537.61s11.56,3.71,1.25,29.36c0,0-7.62-1.7-9-11.91S942.48,541.32,947.49,537.61Z" transform="translate(-1.25 0)" style="fill:#ffc107"/><path d="M963,520.42s1.57-19.93-26.38-17.88c0,0-2,18,21.45,22.68Z" transform="translate(-1.25 0)" style="fill:#ffc107"/><path d="M981.4,497.93s-3.83-22.59-31.76-15.86c0,0-.11,19.53,27.2,21.24Z" transform="translate(-1.25 0)" style="fill:#90a711"/><path d="M994.94,474.67s-6.42-22-34.1-15.42c0,0,6.59,19.79,32.26,19.48Z" transform="translate(-1.25 0)" style="fill:#90a711"/><path d="M1007.76,452s-6.27-22.83-33-16c0,0,8.92,21.69,31.23,19.87Z" transform="translate(-1.25 0)" style="fill:#90a711"/><path d="M1016,430.37s-4.82-27.92-29.74-21.74c0,0,7.23,25.4,27.9,25.8Z" transform="translate(-1.25 0)" style="fill:#90a711"/><path d="M1023.77,404.3s-5.78-28.15-31-20c0,0,9.89,26.6,29.22,23.85Z" transform="translate(-1.25 0)" style="fill:#90a711"/><path d="M1028.57,380s-9.19-28.14-28.68-27.38c0,0,9.4,29.73,27,33Z" transform="translate(-1.25 0)" style="fill:#90a711"/><path d="M1031.62,356.36s-10-33.88-25.87-31.27c0,0,6.93,25.9,25.3,36.55Z" transform="translate(-1.25 0)" style="fill:#90a711"/><path d="M1033.4,328.08s-9.37-28.23-25-29.36c0,0,6.37,27.78,24.68,36.69Z" transform="translate(-1.25 0)" style="fill:#90a711"/><path d="M1035.24,301.8s-11.69-28.26-22-28.9c0,0,5.08,27.83,21,33.54Z" transform="translate(-1.25 0)" style="fill:#90a711"/><path d="M1036.54,277.23s-7.18-30.7-17.52-33.24c0,0,1.41,25.11,16.48,35.54Z" transform="translate(-1.25 0)" style="fill:#90a711"/><path d="M1040.4,245.14s-7.56-24.46-15.93-28.19c0,0,1.66,28.84,14,34.18Z" transform="translate(-1.25 0)" style="fill:#90a711"/><path d="M1043.66,224.07l1.53-43.14s-15.62,32.56-2.68,50.75Z" transform="translate(-1.25 0)" style="fill:#90a711"/><path d="M1055.75,181.2s11.26-31.5,14-33.26c0,0-22.1,20.44-19.94,46.73Z" transform="translate(-1.25 0)" style="fill:#90a711"/><path d="M963.74,520.28s19.82-2.6,19.22,25.42c0,0-17.91,2.91-23.75-20.25Z" transform="translate(-1.25 0)" style="fill:#90a711"/><path d="M982.4,497.17s22.91-.07,21,28.6c0,0-19.22,3.43-25.57-23.18Z" transform="translate(-1.25 0)" style="fill:#90a711"/><path d="M995.16,476.52s20.79-9.75,34.1,15.42c0,0-19.21,8.12-35.93-11.35Z" transform="translate(-1.25 0)" style="fill:#90a711"/><path d="M1008.22,452.16s21.29-10.37,33.79,14.21c0,0-22.17,7.64-35.54-10.32Z" transform="translate(-1.25 0)" style="fill:#90a711"/><path d="M1015.75,431s20.49-19.58,36.85.22c0,0-20.94,16.1-37.79,4.14Z" transform="translate(-1.25 0)" style="fill:#90a711"/><path d="M1022.61,403.63s20.62-20,36.84.92c0,0-23.14,16.43-37.57,3.28Z" transform="translate(-1.25 0)" style="fill:#90a711"/><path d="M1026.47,379.23s15.88-25,34.57-19.41c0,0-16.47,26.47-34.4,25.29Z" transform="translate(-1.25 0)" style="fill:#90a711"/><path d="M1031.15,356.2s16-31.49,31.13-26c0,0-11.53,24.2-31.54,31.31Z" transform="translate(-1.25 0)" style="fill:#90a711"/><path d="M1032.25,326.47s16.45-24.78,31.86-21.76c0,0-13.45,25.13-33.45,28.93Z" transform="translate(-1.25 0)" style="fill:#90a711"/><path d="M1033.5,301.19s12.75-27.8,23.12-28c0,0-6.13,27.61-22.26,32.72Z" transform="translate(-1.25 0)" style="fill:#90a711"/><path d="M1036,276.63s14.17-28.17,24.82-28.22c0,0-7.25,24.08-24.35,30.69Z" transform="translate(-1.25 0)" style="fill:#90a711"/><path d="M1038.16,246.87s10.6-23.3,19.38-25.94c0,0-5.3,28.4-18.21,32.12Z" transform="translate(-1.25 0)" style="fill:#90a711"/><path d="M1044.92,223.25l23.69-36.08s-6.07,35.6-27.14,43Z" transform="translate(-1.25 0)" style="fill:#90a711"/><path d="M1061.18,184.1s27.54-19,28.53-22.08c0,0-14,26.62-40,31.32Z" transform="translate(-1.25 0)" style="fill:#90a711"/><path d="M1062.83,175.55s31.61-30.38,39.68-30.35c0,0-26.07,1.19-40.44,28.74Z" transform="translate(-1.25 0)" style="fill:#90a711"/><path d="M1038.47,251.38l1.15.15c5.94-46.5,14.6-74,24.39-77.37l-.38-1.1C1053.25,176.66,1044.55,203.74,1038.47,251.38Z" transform="translate(-1.25 0)" style="fill:#444053"/><path d="M1029.74,362.55l1.74.15c.36-4.34.64-8.79.83-13.21,1.66-38.48,4.23-73.82,7.62-100.31l-1-1.25c-3.39,26.54-6.69,62.95-8.35,101.49C1030.4,353.8,1030.1,358.24,1029.74,362.55Z" transform="translate(-1.25 0)" style="fill:#444053"/><path d="M896.51,573.06c.31-.13,30.94-13.81,62.73-46.44a252.54,252.54,0,0,0,45.85-65c14.69-29.93,23.65-66.71,26.66-102.44l-1.82.85c-6.74,80.2-43.26,135-72.29,164.85-31.48,32.33-61.76,45.87-62.06,46Z" transform="translate(-1.25 0)" style="fill:#444053"/><path d="M969.85,31.19V549.61c0,15.41-14.87,28-33.23,28H233.25c-18.36,0-33.23-12.54-33.23-28V31.19C200,15.75,214.89,0,233.25,0L936.58,1.71C954.94,1.71,969.85,15.8,969.85,31.19Z" transform="translate(-1.25 0)" style="fill:#fff"/><path d="M969.85,31.35v24H200v-24A31.36,31.36,0,0,1,231.37,0H938.51A31.35,31.35,0,0,1,969.85,31.35Z" transform="translate(-1.25 0)" style="fill:#3f3d56"/><circle cx="236.07" cy="27.67" r="11.08" style="fill:#fa5959;opacity:0.800000011920929;isolation:isolate"/><circle cx="268.3" cy="27.67" r="11.08" style="fill:#fed253;opacity:0.800000011920929;isolation:isolate"/><circle cx="300.53" cy="27.67" r="11.08" style="fill:#8ccf4d;opacity:0.800000011920929;isolation:isolate"/><g style="opacity:0.20000000298023224"><path d="M653.4,190.8v56c0,1.67-3.13,3-7,3H498.68c-3.86,0-7-1.35-7-3v-56c0-1.67,3.12-3.37,7-3.37H646.4C650.28,187.42,653.4,189.12,653.4,190.8Z" transform="translate(-1.25 0)" style="fill:#ffc107"/></g><rect x="500.75" y="198.88" width="140.13" height="4.78" style="fill:#ffc107"/><rect x="500.75" y="210.51" width="140.13" height="4.78" style="fill:#ffc107;opacity:0.20000000298023224;isolation:isolate"/><rect x="500.75" y="222.13" width="140.13" height="4.78" style="fill:#ffc107;opacity:0.20000000298023224;isolation:isolate"/><rect x="500.75" y="233.77" width="140.13" height="4.78" style="fill:#ffc107;opacity:0.20000000298023224;isolation:isolate"/><g style="opacity:0.20000000298023224"><path d="M480.07,299.47v56c0,1.67-3.13,3-7,3H325.35c-3.86,0-7-1.35-7-3v-56c0-1.67,3.12-3.37,7-3.37H473.07C477,296.09,480.07,297.79,480.07,299.47Z" transform="translate(-1.25 0)" style="fill:#ffc107"/></g><rect x="327.42" y="307.55" width="140.13" height="4.78" style="fill:#ffc107"/><rect x="327.42" y="319.17" width="140.13" height="4.78" style="fill:#ffc107;opacity:0.20000000298023224;isolation:isolate"/><rect x="327.42" y="330.8" width="140.13" height="4.78" style="fill:#ffc107;opacity:0.20000000298023224;isolation:isolate"/><rect x="327.42" y="342.44" width="140.13" height="4.78" style="fill:#ffc107;opacity:0.20000000298023224;isolation:isolate"/><path d="M161.71,172.05v56c0,1.67-3.11,3-7,3H8.2c-3.83,0-6.95-1.35-6.95-3v-56c0-1.67,3.1-3.37,7-3.37H154.78C158.6,168.68,161.71,170.38,161.71,172.05Z" transform="translate(-1.25 0)" style="fill:#fff"/><g style="opacity:0.20000000298023224"><path d="M440.73,124.8v56c0,1.67-3.13,3-7,3H286c-3.86,0-7-1.35-7-3v-56c0-1.67,3.12-3.37,7-3.37H433.73C437.61,121.42,440.73,123.12,440.73,124.8Z" transform="translate(-1.25 0)" style="fill:#ffc107"/></g><rect x="288.08" y="132.88" width="140.13" height="4.78" style="fill:#ffc107"/><rect x="288.08" y="144.51" width="140.13" height="4.78" style="fill:#ffc107;opacity:0.20000000298023224;isolation:isolate"/><rect x="288.08" y="156.13" width="140.13" height="4.78" style="fill:#ffc107;opacity:0.20000000298023224;isolation:isolate"/><rect x="288.08" y="167.77" width="140.13" height="4.78" style="fill:#ffc107;opacity:0.20000000298023224;isolation:isolate"/><g style="opacity:0.20000000298023224"><path d="M162.27,172.25v56c0,1.67-3.11,3-7,3H8.7c-3.83,0-6.95-1.35-6.95-3v-56c0-1.67,3.1-3.37,7-3.37H155.32C159.17,168.87,162.27,170.57,162.27,172.25Z" transform="translate(-1.25 0)" style="fill:#ffc107"/></g><rect x="10.74" y="180.34" width="139.09" height="4.78" style="fill:#ffc107"/><rect x="10.74" y="191.96" width="139.09" height="4.78" style="fill:#ffc107;opacity:0.20000000298023224;isolation:isolate"/><rect x="10.74" y="203.58" width="139.09" height="4.78" style="fill:#ffc107;opacity:0.20000000298023224;isolation:isolate"/><rect x="10.74" y="215.22" width="139.09" height="4.78" style="fill:#ffc107;opacity:0.20000000298023224;isolation:isolate"/><path d="M519.56,570.28l-21.94-31.81s-.41-7.88-1.85-9.72-.31-5.93-.31-5.93,1.54-2.25.21-2.46-.21-5.22-.21-5.22l-.1-8s1.23-7.68.21-9.52a3,3,0,0,1,.1-3.27s1.23-4.4,0-5.53-.93-8-.62-13.4-2.15-8.49-2.15-9.31-8.1-8.79-8.1-9.51-5.13-3.68-8.21-4.5-4.61-1.43-4.51-1.84-4.82-2-4.82-2-4.3-.31-5.95-2.45-6.65-2.78-6.8-2.79l-.09-.43-.09-.46c.38-.65.74-1.32,1.07-2,.1-.21.19-.41.28-.62a8.77,8.77,0,0,0,5.05-1.57,6.83,6.83,0,0,0,2.45-4.91,10.74,10.74,0,0,0-1.19-5.45c-.9-1.84-2.22-3.75-1.77-5.75.2-.86.72-1.62,1-2.46a6.49,6.49,0,0,0-.74-4.85c-.77-1.48-1.85-2.79-2.72-4.23a16.33,16.33,0,0,1-2.16-6,9.4,9.4,0,0,0-.8-3.26,6.37,6.37,0,0,0-1.8-1.82,18,18,0,0,0-11-3.34c-2.79.1-5.58.85-8.35.51a30.32,30.32,0,0,1-4.87-1.27c-3.44-1-7.41-1.44-10.4.53s-4.19,5.84-6.22,8.87c-1.8,2.67-4.42,4.92-5.79,7.76v-.17a10.07,10.07,0,0,0-.76,2.07,14.69,14.69,0,0,0,.45,6.78,4.74,4.74,0,0,0,1.66,3c1,.65,2.4.5,3.59.71-.05.19-.1.39-.14.58a23.46,23.46,0,0,0,16.23,27.34v.62a17.14,17.14,0,0,1-.1,1.76h0s-10.31-2.12-13.07-.68-8.21,2.55-9,3.37-2.87.21-4.72,5-2.05,9.72-4.4,12-3.59,3.79-3.7,5.43.31,2-.61,2.55-2.26,2.66-1.85,3.48a2.9,2.9,0,0,1-1.13,3.07,3.41,3.41,0,0,0-1.43,3.07s-.62,2.25-2.05,2.76S383,498.9,383,498.9l-4.65,5.35-9.22-10.2a3.89,3.89,0,0,0-5.48-.28l-4.54,4a8.85,8.85,0,0,0-4.53,2.7,11.75,11.75,0,0,0-2.34,3.49l-2.48,2.23a6.28,6.28,0,0,0-.64,6.95L355,519.7v.06a10.25,10.25,0,0,0-5.71,2.32c-8.81,7.78-8.92,14.94-7.58,18.21s12.51,15.86,12.51,15.86,6.49,8.44,15.86,12.93h0l-.07.07c-.19.2-.37.41-.55.64l-.15.2a1.43,1.43,0,0,0-.14.2l-.17.24-.13.2-.18.3-.11.19-.21.4-.07.13s-.17.37-.25.56l-.09.21a1.12,1.12,0,0,1-.16.4l-.09.27a1.69,1.69,0,0,1-.13.4l-.09.29q-.06.21-.12.45a1.34,1.34,0,0,1-.07.27c0,.09-.11.49-.16.74a1.41,1.41,0,0,0,0,.29,4.51,4.51,0,0,0-.09.53,1,1,0,0,1-.05.37,2.42,2.42,0,0,0-.07.51,2.52,2.52,0,0,0,0,.39v1.94c-.21,12,.49,13.71.49,13.71a6.65,6.65,0,0,0,5.44,4.08,7.4,7.4,0,0,0,1.76-.09c5.33-.93,17.84-3.07,22.25-2.25,2.65.49,7.56-.24,11.05-.9l.92-.18.64,2,2-.56,1.72,1,1.09.62c2,6.86,10.24,4.52,10.24,4.52l1.95,1.13,19.79.51a39.51,39.51,0,0,0,7,3.36,6.86,6.86,0,0,0,1,.22,44,44,0,0,0,5.51.1c1.52,0,2.69-.1,2.69-.1s-.2-5.37-.49-11.39a160.8,160.8,0,0,0,18.33-1.5c10.57-1.86,15-11.47,16.6-16.6a47.4,47.4,0,0,1,1,6.37,46,46,0,0,0,1.64,5.52,18.6,18.6,0,0,0,2.26,4.1c7.79-2.66,3.07-6.65,1.43-8.39s1.13-3.17,1.13-3.17,2.16-1.44,2-2.77-.31-2.76,6.67-2.66S519.56,570.28,519.56,570.28ZM411.28,505c.09.59,1.06,6.89,1.94,8.55a10.89,10.89,0,0,1,.23,3.37c-4.13-.33-8.43-.51-8.43-.51a1,1,0,0,1,.22.53l-.65-.15-.95-.23L411.26,505ZM396.2,529l7.15,1.14.6.09a25.69,25.69,0,0,0-.37,3.38c0,.1.16.23.39.38a10.61,10.61,0,0,0-.14,1.69c.12.57,3.46,1.79,7.3,2.81-.06.2-.11.4-.16.58h0c-3.39-1.78-8.72-2.61-9.34-3.93s-18.76-7.67-18.76-7.67-.67-.35-1.81-.9l4.78.9,1.31-.13A73.08,73.08,0,0,0,396.2,529Z" transform="translate(-1.25 0)" style="fill:url(#linear-gradient)"/><path d="M496.22,574.73s-2.85,17.18-17.28,19.72-62.6,2-62.6,2-27.54-4-37.5-27.23-16.37-32.53-7.83-32.93,54.58,15.55,57.22,15.75S498.76,516.7,496.22,574.73Z" transform="translate(-1.25 0)" style="fill:#65617d"/><path d="M496.22,574.73s-2.85,17.18-17.28,19.72-62.6,2-62.6,2-27.54-4-37.5-27.23-16.37-32.53-7.83-32.93,54.58,15.55,57.22,15.75S498.76,516.7,496.22,574.73Z" transform="translate(-1.25 0)" style="opacity:0.05000000074505806;isolation:isolate"/><path d="M367,593.8a6.6,6.6,0,0,0,5.37,4.1,6.76,6.76,0,0,0,1.74-.1c5.28-.91,17.68-3,22.05-2.23,2.63.49,7.5-.24,11-.89,2.3-.43,4-.84,4-.84s-4.06-13.52-4.57-13.92-18.33-11.12-18.33-11.12l-14.09-1h0a7.44,7.44,0,0,0-4.77,2.81c-1.49,1.8-2.77,4.75-2.85,9.59C366.33,592.11,367,593.8,367,593.8Z" transform="translate(-1.25 0)" style="fill:#3f3d56"/><path d="M367,593.8a6.6,6.6,0,0,0,5.37,4.1,57.3,57.3,0,0,1-3.82-5.58l.07-9.86a17.41,17.41,0,0,1,5.55-14.66h0s-7.42.51-7.62,12.4S367,593.8,367,593.8Z" transform="translate(-1.25 0)" style="opacity:0.05000000074505806;isolation:isolate"/><path d="M428.13,572.29,441.24,562l20.63-20.33-5.59-.25c-.84.53-3.18,2.21-3.27,4.25-.1,2.48-5.57.17-8.42,1.59s-16.77,19.24-19.19,19.13-4.37-1.24-5.38.49a.44.44,0,0,1-.08.11Z" transform="translate(-1.25 0)" style="opacity:0.10000000149011612;isolation:isolate"/><path d="M369.4,570.63l1.42.65c10,4.27,22.25,13.21,23.17,14.84.56,1,7.69,5.32,13.19,8.56,2.3-.43,4-.84,4-.84s-4.06-13.52-4.57-13.92-18.32-11.12-18.32-11.12l-14.09-1h0A7.4,7.4,0,0,0,369.4,570.63Z" transform="translate(-1.25 0)" style="opacity:0.10000000149011612;isolation:isolate"/><path d="M341.74,541.5c1.32,3.25,12.4,15.75,12.4,15.75s7,9.15,17,13.42,22.26,13.21,23.17,14.84c.59,1,8.53,5.82,14.12,9.11l1.26.73,2.77,1.61,1.47.84s3.4-2.73,6.79-5.48,6.68-5.44,6.73-5.59c.1-.31,1.42-3.76,1.11-4s-.85-1.51-2.14-3.14a14.4,14.4,0,0,0-5.17-4.28,14.71,14.71,0,0,1-6.71-7s-.45-.32-1.12-.75a13.73,13.73,0,0,0-4.57-2c-2.24-.28-6.4-4.85-6.4-4.85a12.56,12.56,0,0,1-4-4.17c-1.07-2.23-16.83-13-18.29-14L418.4,567l9.15,5.87,13.11-10.26,20.63-20.33-6.81-.3c-10-.44-27.83-1.12-30.08-.61a17,17,0,0,1-5.59.36s-5.08.23-8.43-1.54-8.65-2.6-9.26-3.91-18.6-7.62-18.6-7.62-24.49-13-33.23-5.28S340.4,538.25,341.74,541.5Z" transform="translate(-1.25 0)" style="fill:#65617d"/><path d="M420.71,466.9l3.15,10.47L427.92,501l14.94,1,4.33-7.18,4.31-7.15s2.69-9.53,4.63-18.75c1.71-8.15,2.82-16.07,1-16.93-1.65-.76-2.73-3.51-3.44-6.46-.09-.36-.17-.73-.24-1.1a56.77,56.77,0,0,1-1-7.58s-31.31-1.63-26.94,11.28a20.53,20.53,0,0,1,1.18,6.86,17.11,17.11,0,0,1-.1,1.75A14.63,14.63,0,0,1,420.71,466.9Z" transform="translate(-1.25 0)" style="fill:#ee8e9e"/><path d="M414.2,465.17,415.32,483l2.54,15.14,2.85,7,2.54,38.36s24.5,2.84,30.46,0a2.62,2.62,0,0,0,1.08-.84c7.2-10.87,4.84-42.35,4.84-42.35l2.77-20.36-1.83-10.55-4.42-.47-3.41-.36s-.77.94-1.87,2.41c-3,4-8.56,11.8-8.19,15.07.51,4.47-.61,9-2.34,9.75s-3.15,1.94-3.45.72a5.49,5.49,0,0,1-.31-3.25c.31-1.73-1.32-7-1.32-7s-2.74-6.2-2.54-8.84-.3-5.69-1.12-6.4-1.93-1.43-1-4.68-4-9.58-4-9.58Z" transform="translate(-1.25 0)" style="fill:#e3e8f4"/><path d="M446.57,509.59l1,30.39,5.87,3.26a2.57,2.57,0,0,0,1.08-.85c7.2-10.87,4.84-42.35,4.84-42.35l2.74-20.33-1.83-10.55-4.42-.47c1.71-8.15,2.83-16.06,1-16.92-1.65-.77-2.74-3.51-3.44-6.46h0l-3.18,21.49s.27,1.93.36,3.93a11.24,11.24,0,0,1-.26,3.79c-.71,1.83-.2,5.08-.2,5.08-1.83,3.23-2.75,9.21-3.19,15C446.34,502.28,446.57,509.59,446.57,509.59Z" transform="translate(-1.25 0)" style="opacity:0.10000000149011612;isolation:isolate"/><path d="M453.5,444.8s5.12.64,6.74,2.77,5.9,2.44,5.9,2.44,4.88,1.63,4.77,2,1.43,1,4.48,1.83,8.13,3.76,8.13,4.48,8,8.63,8,9.45,2.43,3.86,2.13,9.25-.61,12.19.61,13.31,0,5.49,0,5.49a3,3,0,0,0-.1,3.25c1,1.83-.21,9.45-.21,9.45l.11,7.93s-1.12,5,.2,5.18-.2,2.44-.2,2.44-1.12,4.07.3,5.9,1.83,9.65,1.83,9.65l21.75,31.61s.3,5.79-6.61,5.69-6.81,1.32-6.6,2.64-1.93,2.75-1.93,2.75-2.75,1.42-1.12,3.15,6.3,5.69-1.42,8.33a18.47,18.47,0,0,1-2.24-4.06,48,48,0,0,1-1.63-5.49s-.71-7.73-2.13-8.74-1.22-5.9-1.22-5.9,2-4-.81-5.59-44.11-24.49-44.11-24.49l-1-30.39s-.71-22.46,3.56-30c0,0-.51-3.25.2-5.08s-.1-7.73-.1-7.73Z" transform="translate(-1.25 0)" style="fill:#3f3d56"/><path d="M426.86,457s-10.22-2.11-13-.69-8.13,2.54-8.94,3.36-2.85.2-4.68,5-2,9.65-4.37,11.89-3.56,3.76-3.66,5.38.31,2-.61,2.54-2.23,2.65-1.83,3.46,21.14,18.7,21.14,18.7,1,6.81,1.93,8.54-1,25.51-3,27.13,13.76,1.47,13.76,1.47.72-15.6,1.33-16.42-.41-17.48-.41-17.48-.1-14.23,1.22-18,1.17-16.26,1.17-16.26,1.17-7.5,2.59-9.25S426.86,457,426.86,457Z" transform="translate(-1.25 0)" style="opacity:0.10000000149011612;isolation:isolate"/><path d="M426.56,456.71s-10.22-2.1-13-.68-8.13,2.54-8.94,3.35-2.85.21-4.67,5-2,9.66-4.37,11.89-3.56,3.76-3.66,5.39.3,2-.61,2.54-2.24,2.64-1.83,3.46,21.14,18.7,21.14,18.7,1,6.81,1.93,8.53-1,25.51-3.05,27.14,13.72,1.47,13.72,1.47.71-15.6,1.32-16.41-.41-17.48-.41-17.48-.1-14.23,1.22-18,1.18-16.26,1.18-16.26,1.16-7.5,2.58-9.25S426.56,456.71,426.56,456.71Z" transform="translate(-1.25 0)" style="fill:#3f3d56"/><path d="M425.48,448.1a20.53,20.53,0,0,1,1.18,6.86A23.29,23.29,0,0,0,453.4,444.4a56.77,56.77,0,0,1-1-7.58S421.11,435.19,425.48,448.1Z" transform="translate(-1.25 0)" style="opacity:0.10000000149011612;isolation:isolate"/><path d="M410,432a23.22,23.22,0,1,0,.5-4.84A23.22,23.22,0,0,0,410,432Z" transform="translate(-1.25 0)" style="fill:#ee8e9e"/><path d="M395.1,485.91l-5.59,1.73a2.87,2.87,0,0,1-1.12,3,3.4,3.4,0,0,0-1.42,3s-.61,2.24-2,2.75-2.33,3.86-2.33,3.86L378,505.64s-1.73,1.42-1.42,2.13-1.83.91-1.83.91l1.12,18.1,9.65,1.82,6-.61,4.88-1.82,4.27-2.55,1.93-5,8.53-13Z" transform="translate(-1.25 0)" style="fill:#3f3d56"/><path d="M376.09,510.2s-12.4-17.89-21.65-8.23,3.76,25.3,6.81,24.79,17.59-1.32,17.59-1.32Z" transform="translate(-1.25 0)" style="fill:#ee8e9e"/><path d="M410.54,427.2a2.84,2.84,0,0,1,1.71.77c.78.83.82,2.3,1.85,2.82a2.18,2.18,0,0,0,1.21.14c2.7-.39,4.26-3.44,6.86-4.28a7,7,0,0,1,4.55.39,3.49,3.49,0,0,1,1.5,1c.87,1.13.26,2.78.66,4.14.56,1.89,2.81,2.64,4.77,2.88s4.15.39,5.45,1.86a5,5,0,0,1,1,3.93,3.27,3.27,0,0,0,0,1.46c.54,1.52,3.18,1.3,3.87.09.5-.87.35-1.6,1.53-1.84A5.08,5.08,0,0,1,448,441a18.09,18.09,0,0,0,6.44,1,23.28,23.28,0,1,0-43.84-14.74Z" transform="translate(-1.25 0)" style="opacity:0.10000000149011612;isolation:isolate"/><path d="M440.05,441.67a3.27,3.27,0,0,1,0-1.46,5,5,0,0,0-1-3.93c-1.3-1.47-3.5-1.61-5.45-1.86s-4.21-1-4.77-2.88c-.4-1.36.21-3-.66-4.14a3.4,3.4,0,0,0-1.5-1,7,7,0,0,0-4.55-.4c-2.6.84-4.16,3.89-6.86,4.28a2.18,2.18,0,0,1-1.21-.14c-1-.52-1.07-2-1.85-2.82-1.24-1.31-3.58-.47-5.09-1.44a4.61,4.61,0,0,1-1.64-3,14.52,14.52,0,0,1-.45-6.74c.88-3.78,4.26-6.37,6.42-9.6,2-3,3.14-6.81,6.16-8.81s6.9-1.54,10.31-.53a28.86,28.86,0,0,0,4.83,1.27c2.74.34,5.5-.41,8.27-.5a17.7,17.7,0,0,1,10.92,3.32,6.11,6.11,0,0,1,1.78,1.8,9.08,9.08,0,0,1,.8,3.24,16.37,16.37,0,0,0,2.14,5.94c.86,1.43,1.93,2.73,2.7,4.21a6.43,6.43,0,0,1,.73,4.81c-.26.84-.77,1.59-1,2.45-.45,2,.86,3.88,1.75,5.71a10.84,10.84,0,0,1,1.19,5.42,6.84,6.84,0,0,1-2.44,4.87,8.69,8.69,0,0,1-5.15,1.56,18.35,18.35,0,0,1-6.57-1,5,5,0,0,0-2.48-.43c-1.19.24-1,1-1.54,1.84C443.23,443,440.59,443.19,440.05,441.67Z" transform="translate(-1.25 0)" style="fill:#3f3d56"/><path d="M427.52,572.9l13.11-10.26,20.63-20.33-6.81-.3a4.44,4.44,0,0,0-1.44,2.77c-.1,2.49-5.57.18-8.42,1.6s-16.77,19.24-19.19,19.12S421,564.27,420,566l-.08.12a2.92,2.92,0,0,1-1.55.92Z" transform="translate(-1.25 0)" style="opacity:0.10000000149011612;isolation:isolate"/><path d="M401.09,572.19l6.59,21,1,3.3,3.14-.86,6.92-1.9,30.8-8.46a26.71,26.71,0,0,0,11.09-3,33.54,33.54,0,0,1,19.14-4.18c4.07.38,8.6-1.37,12.36-8.32,0,0,8.53-25.2-13-32.41s-22.58,3.83-22.58,3.83l-.29.18c-.84.53-3.18,2.21-3.27,4.25-.1,2.48-5.57.17-8.42,1.59s-16.75,19.32-19.17,19.21-4.37-1.24-5.38.49a.44.44,0,0,1-.08.11c-.75,1-3,1.28-4.51,1.32H414l-.19.06-1.56.46Z" transform="translate(-1.25 0)" style="fill:#65617d"/><path d="M402.8,531.34l3.17.51,1.32-13.11s-1.45-.22-3.27-.64C404.5,519.92,403.4,527,402.8,531.34Z" transform="translate(-1.25 0)" style="opacity:0.10000000149011612;isolation:isolate"/><path d="M485.9,470.08s9.45-2.74,7.12,24.09S473.2,538,473.2,538s-20.13,8.84-29.17,7.42-15.63-1.73-15.63-1.73a23,23,0,0,0-9.15-2.44c-5.08-.2-15.75-3.35-16-4.37s2.65-16,1.43-17.07c0,0,14.23.58,15.65,1.61s3.45.29,5,0,6.2-4.35,15.45-.8c0,0,3.15.31,4.37-.51a4.42,4.42,0,0,1,3.18-.2,8.78,8.78,0,0,0,2.2-1.12c.31-.4,2.75,0,2.75,0a1.07,1.07,0,0,0,1.44-.5.9.9,0,0,0,.08-.21,6.63,6.63,0,0,1,1.42-2.23s2.75-15.45,7.93-21.24a3.3,3.3,0,0,0,1.12-2.95C464.86,490,473.7,466.8,485.9,470.08Z" transform="translate(-1.25 0)" style="opacity:0.10000000149011612;isolation:isolate"/><path d="M412.25,568.85l13.42,16.25.09-.1c.1-.3,1.42-3.76,1.11-4s-2.64-5.29-7.32-7.42a13.93,13.93,0,0,1-5.74-5.23Z" transform="translate(-1.25 0)" style="opacity:0.10000000149011612;isolation:isolate"/><path d="M412.4,597l1.47.84s3.4-2.73,6.79-5.48,6.68-5.44,6.73-5.59c.1-.31,1.42-3.76,1.11-4s-.85-1.51-2.14-3.14c-9.1-2.55-3.3,3.77-2.53,4.06,0,0-11.08-2.54-11.69,9.52A14.61,14.61,0,0,0,412.4,597Z" transform="translate(-1.25 0)" style="opacity:0.10000000149011612;isolation:isolate"/><path d="M423.65,602.07l1.94,1.12,19.61.51a39.57,39.57,0,0,0,6.94,3.34,6.86,6.86,0,0,0,1,.22,45.4,45.4,0,0,0,5.47.1c1.5,0,2.66-.1,2.66-.1s-.93-24.74-1.63-27.34c-.33-1.25-2-1-3.6-.35a23.13,23.13,0,0,0-3.51,1.78s-8.33.8-9.66,1.52-5.08-.41-7.42,0-6.5-2.75-6.5-2.75c-11.38-3.76-5,3.25-4.17,3.56,0,0-11.07-2.54-11.68,9.52S423.65,602.07,423.65,602.07Z" transform="translate(-1.25 0)" style="fill:#3f3d56"/><path d="M452,592.52c.21,5.12,4.2,11.48,6.59,14.84,1.5,0,2.66-.1,2.66-.1s-.93-24.74-1.63-27.34c-.33-1.25-2-1-3.6-.35C454.06,583.26,451.84,588.39,452,592.52Z" transform="translate(-1.25 0)" style="fill:#565387"/><path d="M452,592.52c.21,5.12,4.2,11.48,6.59,14.84,1.5,0,2.66-.1,2.66-.1s-.93-24.74-1.63-27.34c-.33-1.25-2-1-3.6-.35C454.06,583.26,451.84,588.39,452,592.52Z" transform="translate(-1.25 0)" style="opacity:0.10000000149011612;isolation:isolate"/><path d="M448.66,593.2c1.35,4.94,1.33,10.49,3.48,13.84a6.86,6.86,0,0,0,1,.22,45.4,45.4,0,0,0,5.47.1c1.5,0,2.66-.1,2.66-.1s-.93-24.74-1.63-27.34c-.33-1.25-2-1-3.6-.35a23.13,23.13,0,0,0-3.51,1.78S446.93,586.87,448.66,593.2Z" transform="translate(-1.25 0)" style="opacity:0.05000000074505806;isolation:isolate"/><path d="M381,543.06s9.74,3.16,18,14.39Z" transform="translate(-1.25 0)" style="opacity:0.10000000149011612;isolation:isolate"/><g style="opacity:0.10000000149011612"><path d="M460.16,421.1l-.06.22a6.85,6.85,0,0,1-.34.85A5.73,5.73,0,0,1,460.16,421.1Z" transform="translate(-1.25 0)"/><path d="M405,416.17a9.12,9.12,0,0,1,.75-2c-.05.17-.1.35-.14.53a14.52,14.52,0,0,0,.45,6.74,4.61,4.61,0,0,0,1.64,3c1.51,1,3.85.13,5.08,1.43.79.83.83,2.31,1.85,2.82a2,2,0,0,0,1.22.14c2.7-.38,4.26-3.43,6.86-4.27a6.89,6.89,0,0,1,4.54.39,3.29,3.29,0,0,1,1.51,1c.87,1.12.26,2.78.66,4.14.56,1.88,2.81,2.63,4.76,2.88s4.15.38,5.46,1.86a4.93,4.93,0,0,1,1,3.93,3.23,3.23,0,0,0,0,1.45c.54,1.53,3.18,1.3,3.87.1.5-.88.35-1.6,1.53-1.85a5.08,5.08,0,0,1,2.49.43,18.35,18.35,0,0,0,6.57,1,8.83,8.83,0,0,0,5.15-1.56,6.27,6.27,0,0,0,1.58-1.93,6.48,6.48,0,0,1-2.19,3.45,8.69,8.69,0,0,1-5.15,1.56,18.35,18.35,0,0,1-6.57-1,5.08,5.08,0,0,0-2.49-.43c-1.18.24-1,1-1.53,1.84-.69,1.21-3.33,1.43-3.87-.09a3.27,3.27,0,0,1,0-1.46,4.93,4.93,0,0,0-1-3.93c-1.31-1.47-3.5-1.61-5.46-1.86s-4.2-1-4.76-2.88c-.4-1.36.21-3-.66-4.14a3.4,3.4,0,0,0-1.5-1,7,7,0,0,0-4.55-.4c-2.6.84-4.16,3.89-6.86,4.28a2.22,2.22,0,0,1-1.22-.14c-1-.52-1.06-2-1.85-2.82-1.23-1.31-3.57-.47-5.08-1.44a4.61,4.61,0,0,1-1.64-3A14.64,14.64,0,0,1,405,416.17Z" transform="translate(-1.25 0)"/></g><path d="M461.73,497.52c-1.86,2.51-4,4.84-5.63,7.5a14.26,14.26,0,0,0-2.47,8.87c1.7-1.75,2.48-4.17,3.56-6.36,1.82-3.72,4.54-6.87,6.83-10.28.44-.65,3.25-4.42,1.83-4.6C464.68,492.5,462.4,496.66,461.73,497.52Z" transform="translate(-1.25 0)" style="opacity:0.10000000149011612;isolation:isolate"/><path d="M410.28,456.48,430.65,495c.61,1.14-1,3.21-3.7,4.62L325.28,553.39c-2.65,1.4-5.3,1.61-5.9.46L299,515.34c-.61-1.15.92-3.46,3.57-4.86l101.67-53.77C406.91,455.3,409.68,455.33,410.28,456.48Z" transform="translate(-1.25 0)" style="fill:#fff"/><path d="M878.16,136.14v56c0,1.67-3.12,3-7,3H723.4c-3.86,0-7-1.35-7-3v-56c0-1.67,3.12-3.37,7-3.37H871.18C875,132.8,878.16,134.47,878.16,136.14Z" transform="translate(-1.25 0)" style="fill:#fff"/><g style="opacity:0.10000000149011612"><path d="M860.85,146.33v56c0,1.66-3.13,3-7,3H706.12c-3.86,0-7-1.36-7-3v-56c0-1.67,3.12-3.37,7-3.37H853.87C857.72,143,860.85,144.66,860.85,146.33Z" transform="translate(-1.25 0)" style="fill:#ffc107"/></g><path d="M878.16,136.14v56c0,1.67-3.12,3-7,3H723.4c-3.86,0-7-1.35-7-3v-56c0-1.67,3.12-3.37,7-3.37H871.18C875,132.8,878.16,134.47,878.16,136.14Z" transform="translate(-1.25 0)" style="fill:#fff"/><path d="M925,594.22c-1.38-5-2.28-9.38-2.28-9.38s.06-5.49-2.56-9.51l0-1.37h0l-.4-10.16a34.5,34.5,0,0,1,2.36-5.4c1.7-3.25-.57-14.85-.57-14.85s-7.4-16.19-6.15-26.68-15.67-45.79-15.67-45.79a46.14,46.14,0,0,1,1.07-10.28,8.23,8.23,0,0,0,.11-2.16v-.18c-.5-6.87-6.43-19.55-6.43-19.55l-.22-24.61s2.92-14.63-3.5-33.86c-2.24-6.71-3.71-12.1-4.67-16.26-.11-.47-.22-.92-.31-1.36,11.59-2.22,20.43-4,20.43-4s-7.84-28-12.6-32.8-9-20.19-9-20.19-3.14-19.89.47-25.87,3.75-16.16,3.75-16.16,8.52-6.71,9.51-9.58,2.57-9.31,2.44-12.66-1.34-6.33-1-8.11-2.89-8.39-1.55-11.63a8.76,8.76,0,0,0,.47-3.09v-.13a43.38,43.38,0,0,0-1.09-8.26,23.6,23.6,0,0,0-8.86-4.31l-.22-.75-.57-2c-.3-.18-.59-.34-.88-.48v-.72l-.19-2.87,1.12-6.51c2.27-11.33-12.78-12.43-12.78-12.43a7.83,7.83,0,0,0-4.38-3.55c-3.06-1,.14,16.91,1.6,18,1.09.82,4.58,6.32,6.26,9h0l.28.44a5.9,5.9,0,0,0-.66.75l.72,3.87.11.6a15.75,15.75,0,0,0-2.23,4.16s2.85,2.9,2.43,6.28,1.13,7.52,1.21,7.74c-.17-.18-2.18-2.19-4.08-1.6s-7.23,2.4-7.23,2.4-4,.86-3.59,1.73S863,235,863,235l-11.2-9.82c-.12-.3-.24-.6-.35-.91a26.33,26.33,0,0,1-1.11-4.45,23.88,23.88,0,0,0,3.41-1.23,7.45,7.45,0,0,0,2.92-2c1-1.33,1.18-3.1,1.56-4.72.73-3.18,2.46-6.05,3.66-9.09a29.16,29.16,0,0,0,1.47-16.06,10.68,10.68,0,0,0-1.84-4.63c-1.86-2.36-5.09-3.23-7.49-5.07s-4-4.74-6.78-6.09c-2.5-1.22-5.48-1-8.22-.39a43.8,43.8,0,0,0-15.1,6.15c-1.53,1-3.22,2.14-5,1.88-1.56-.22-2.74-1.42-3.79-2.57v-.15l-.13-.13a19,19,0,0,0-1.36,8.14,5.62,5.62,0,0,0,.1,1.29v.45a2.41,2.41,0,0,1,0,.38h0a2.78,2.78,0,0,1-.06.58,4.17,4.17,0,0,1-1,1.49,9.64,9.64,0,0,0-.84,1.24,1.53,1.53,0,0,1,.13-.45,6.31,6.31,0,0,0-1,3.45,3.4,3.4,0,0,0,.9,2.41,11.44,11.44,0,0,0,1.82,1.35,19.71,19.71,0,0,0-.19,3.6,20.91,20.91,0,0,0,10.86,17.43c.14.3.27.6.41.91,1.52,3.58,2.72,7.77,2.41,11.7a6.12,6.12,0,0,1-.1.86c0,.28-.26.31-.37.47h0s-17.83.86-22.17-2.78-10.24,9.69-10.24,9.69-6.34,1.49-7.67.3-8.78.16-8.78.16a16.07,16.07,0,0,0-11.29-3.64,33.21,33.21,0,0,0-8.36-4.23h0l-.21-.06h0a9.19,9.19,0,0,0-4-.36s-9-6.91-11.76-10.7-15.44-17.75-15.5-17.82l-.07-.69-.22-2.1a7.92,7.92,0,0,1-1.09.14l-.27-.72a38.3,38.3,0,0,0-2.82-5.84s-.1-2.66.65-3.35-.72-10.38-.72-10.38-8.61-18.17-15.16-4.1c0,0-13,9.44-1.41,19.39,0,0,4.57,2,5.27,3.7.46,1.1,2.1,4.16,3.2,6.19.18.34.35.64.49.91l-.12.11.23,1.73.09.67c-2.06,1.28-3.45,2.53-3.07,3.42a19,19,0,0,1,1.46,4.72s16.28,18.85,18.61,27.09c0,0,42.6,23.15,56.37,24.39l-1.8,12.44a97.21,97.21,0,0,0-.16,10.1c.28,2.65-1.08,14.74-1.08,14.74s-1.7,17.77-3.61,20.33-1.15,13.14-1.15,13.14a90,90,0,0,1-2.16,15.14c-1.75,6.79,0,15,0,15s-6.33,16.18,9.88,4.75c0,0,8.14-.82,17.52-1.5V372c0,1.21.06,2.52.1,3.9.22,9.12.65,21.68,1.43,31.17C808.56,423.8,815,456.8,815,456.8l.64,16.7a23.28,23.28,0,0,0-.29,4.79,31.08,31.08,0,0,0,5.1,16.59L822.11,506s3.28,7.23,3.51,11.61a6.35,6.35,0,0,1-.09,1.07,7.55,7.55,0,0,0-.08,1.71c0,5.06,3.54,17,3.54,17s.65,12.19,2.5,12.83c1.59.54-1.81,7.11-2.83,9,0-.12-.06-.23-.08-.35-.13.25-.21.38-.21.38a8.63,8.63,0,0,0-.45,3.11,4.41,4.41,0,0,0,2.19,4.21c3.55,2,5.48,3.68,2.57,4.5a29.39,29.39,0,0,0-3.2.81c0-.14-.12-.28-.17-.41a2,2,0,0,0-1.12,2.18,9.26,9.26,0,0,0,1.25,4.1c3.18,6.43,5.3,8.83,5.3,8.83l1.39-.21a7.32,7.32,0,0,1-.75,1.54,5.89,5.89,0,0,1-2,1.91,6.46,6.46,0,0,1-2.46,1,7,7,0,0,0-5.08,2.72c-1.73,2.42-2.75,5.68,1,8.36l13.24,4S862.66,608,861.27,603s-2.28-9.38-2.28-9.38a20,20,0,0,0-2.17-8.87,11,11,0,0,0-.84-1.29l.79-.12s1.21-11.2,3.32-13.41c.49-.5.59-.88.46-1.17.2-.62-.38-1-1.13-1.12a1.6,1.6,0,0,1-.14.44,11.48,11.48,0,0,0-2.19-.16s-1-5.8,1.34-8a2.23,2.23,0,0,0,.39-1.75,9.41,9.41,0,0,0-.34-2.36.61.61,0,0,0-.07.14c-1.41-5.25-5.78-13.51-5.78-13.51s-.38-5.3,1-7.47-1.3-28.82-1.3-28.82.06-12.93-1.82-18.87S852,474.09,852,474.09a1.87,1.87,0,0,0-.06-.39v-.09s-.11-.79-.29-2v.13c-.49-3.4-1.43-9.56-2-12.41-.89-4-.72-23.52-.72-23.52l3-8.44,6.4,14.1,6.95,18.86s3.23,3.91,3.46,8v.6c0,.43,0,.85,0,1.28a11.42,11.42,0,0,0,2.15,6.72s2,9,4.64,11.16,2.82,6.62,2.82,6.62,3.61,13,5.16,15.21c1.3,1.89,1.57,7.21,1.62,8.84h0v.48s.62,4.66.75,8.59v1.3a14.22,14.22,0,0,1-.26,3.19v-.47A33.51,33.51,0,0,0,885,540c.1,4.71,1,10.25,4,13.41,5.15,5.47,8.23,4.64,8.23,4.64s-2.1,7.16-5,8.69a2.11,2.11,0,0,0-.31.21,2.83,2.83,0,0,0-.08-.4,3.42,3.42,0,0,0-.76,2.66c-.09,3.12,2.07,8.1,4,10.35a5.82,5.82,0,0,0,2.52,1.34c-.14.11-.29.21-.44.31a9.4,9.4,0,0,1-1,.51,5.15,5.15,0,0,1-1.48.44,7,7,0,0,0-5.08,2.72c-1.72,2.42-2.75,5.67,1,8.36l13.24,4S926.4,599.22,925,594.22Z" transform="translate(-1.25 0)" style="fill:url(#linear-gradient-2)"/><path d="M839.47,605.87l-12.82-4c-3.59-2.69-2.6-6-.93-8.37a6.77,6.77,0,0,1,4.91-2.71,6,6,0,0,0,2.38-1,5.6,5.6,0,0,0,1.93-1.91,9.31,9.31,0,0,0,1.26-4.94s13.72-4.6,17.68-.68a10.76,10.76,0,0,1,1.78,2.4,20.59,20.59,0,0,1,2.11,8.88s.88,4.38,2.22,9.38S839.47,605.87,839.47,605.87Z" transform="translate(-1.25 0)" style="fill:#2d293d"/><g style="opacity:0.20000000298023224"><path d="M878.15,136.55v56c0,1.67-3.13,3-7,3H723.43c-3.86,0-7-1.35-7-3v-56c0-1.67,3.12-3.37,7-3.37H871.15C875,133.17,878.15,134.87,878.15,136.55Z" transform="translate(-1.25 0)" style="fill:#ffc107"/></g><rect x="725.5" y="144.63" width="140.13" height="4.78" style="fill:#ffc107"/><rect x="725.5" y="156.26" width="140.13" height="4.78" style="fill:#ffc107;opacity:0.20000000298023224;isolation:isolate"/><rect x="725.5" y="167.88" width="140.13" height="4.78" style="fill:#ffc107;opacity:0.20000000298023224;isolation:isolate"/><rect x="725.5" y="179.52" width="140.13" height="4.78" style="fill:#ffc107;opacity:0.20000000298023224;isolation:isolate"/><path d="M901.11,597.26l-12.81-4c-3.6-2.68-2.61-5.94-.94-8.35a6.69,6.69,0,0,1,4.91-2.71,5.07,5.07,0,0,0,1.43-.45,9.4,9.4,0,0,0,1-.51c3.47-2.08,3.19-6.85,3.19-6.85s13.73-4.6,17.68-.68a9.87,9.87,0,0,1,1.4,1.75c2.54,4,2.49,9.52,2.49,9.52s.88,4.4,2.22,9.39S901.11,597.26,901.11,597.26Z" transform="translate(-1.25 0)" style="fill:#2d293d"/><path d="M853.88,582.3a10.76,10.76,0,0,1,1.78,2.4h0l-20.72,3.21A9.31,9.31,0,0,0,836.2,583S849.92,578.38,853.88,582.3Z" transform="translate(-1.25 0)" style="opacity:0.10000000149011612;isolation:isolate"/><path d="M916.92,575.44l.15,3.9c-3,5.46-18.72,4.89-23.37,2.39a9.4,9.4,0,0,0,1-.51c3.47-2.08,3.19-6.85,3.19-6.85s13.73-4.6,17.68-.68A10,10,0,0,1,916.92,575.44Z" transform="translate(-1.25 0)" style="opacity:0.10000000149011612;isolation:isolate"/><path d="M918.75,558.56a34.09,34.09,0,0,0-2.27,5.4l.53,14c-3.31,6-21.77,4.74-24.37,1.65s-5.57-11.29-2.79-12.82,4.8-8.68,4.8-8.68-3,.82-8-4.65-4.06-18.08-3.29-21.12-.51-13.09-.51-13.09-.09-7.08-1.59-9.32-5-15.21-5-15.21-.17-4.42-2.73-6.63-4.5-11.16-4.5-11.16A11.61,11.61,0,0,1,867,469.4c.36-4.44-3.36-9.08-3.36-9.08l-6.75-18.86-6.21-14.11-2.85,8.45s-.14,19.48.73,23.52,2.34,14.78,2.34,14.78-3.27,7.21-1.44,13.16,1.79,18.88,1.79,18.88,2.61,26.63,1.28,28.81-1,7.47-1,7.47,7.85,15.28,5.63,17.49-1.29,8-1.29,8,5-.19,2.92,2-3.21,13.41-3.21,13.41l-21.28,3.3s-2.06-2.4-5.14-8.84.31-5.85,3.13-6.67,1-2.51-2.49-4.51-1.68-6.84-1.68-6.84,4.79-8.86,3-9.5-2.44-12.83-2.44-12.83-4.09-14.36-3.36-18.29S822,506,822,506l-1.66-11.09a30.61,30.61,0,0,1-4.7-20.89L815,456.8s-6.23-33-7.58-49.82c-.87-10.74-1.31-25.42-1.51-34.59-.11-5.14-.15-8.55-.15-8.55L881.8,353a64.33,64.33,0,0,0,1.82,11.29c.94,4.16,2.37,9.55,4.55,16.26,6.23,19.24,3.43,33.87,3.43,33.87l.24,24.6s7.35,16.18,6.15,21.9a47.62,47.62,0,0,0-1,10.31s16.41,35.31,15.22,45.8,6,26.69,6,26.69S920.4,555.31,918.75,558.56Z" transform="translate(-1.25 0)" style="fill:#65617d"/><path d="M871.53,468.12l23.13-4S882,478.08,871.53,468.12Z" transform="translate(-1.25 0)" style="opacity:0.05000000074505806;isolation:isolate"/><path d="M890.4,441.54s1.11,8.19-3.81,11.48C886.62,453,895.59,451.26,890.4,441.54Z" transform="translate(-1.25 0)" style="opacity:0.10000000149011612;isolation:isolate"/><path d="M888,415.43s-18.82,16.75-26,15.7S888,415.43,888,415.43Z" transform="translate(-1.25 0)" style="opacity:0.10000000149011612;isolation:isolate"/><path d="M843,476.8s-14.63,3.92-14.84,9.86S843,476.8,843,476.8Z" transform="translate(-1.25 0)" style="opacity:0.10000000149011612;isolation:isolate"/><path d="M849.09,550.35S828.4,555,834.4,557.46s15.83,4.18,15.83,4.18S857,561.73,849.09,550.35Z" transform="translate(-1.25 0)" style="opacity:0.05000000074505806;isolation:isolate"/><g style="opacity:0.05000000074505806"><path d="M830.4,561.8a4.15,4.15,0,0,1-2-2.95c-.12.24-.2.38-.2.38s-1.76,4.84,1.68,6.84c.4.23.77.45,1.12.67.62-.14,1.28-.25,1.92-.44C835.66,565.53,833.79,563.8,830.4,561.8Z" transform="translate(-1.25 0)"/><path d="M857.17,559.39c.55-.55.48-1.91.06-3.64a9.8,9.8,0,0,0-1,5.16A4.13,4.13,0,0,1,857.17,559.39Z" transform="translate(-1.25 0)"/><path d="M850.57,471.55a24,24,0,0,0-1.16,6.56,25.7,25.7,0,0,1,1.45-4.53Z" transform="translate(-1.25 0)"/><path d="M898,460.43a7.89,7.89,0,0,0,.12-1.94c-.21,1.33-.35,2.56-.44,3.64C897.76,461.58,897.86,461,898,460.43Z" transform="translate(-1.25 0)"/><path d="M852.49,534.42a11.16,11.16,0,0,0,.37-3.94,13.33,13.33,0,0,0-.82,5A5,5,0,0,1,852.49,534.42Z" transform="translate(-1.25 0)"/><path d="M858.15,567.6a69.75,69.75,0,0,0-2,11l-21.28,3.3s-2-2.4-5.13-8.83c-.27-.57-.49-1.08-.67-1.54-1.26.64-1.71,2,.12,5.81,3.08,6.43,5.14,8.83,5.14,8.83l21.28-3.3s1.16-11.2,3.2-13.4C859.8,568.34,859.11,567.8,858.15,567.6Z" transform="translate(-1.25 0)"/><path d="M828.68,536.93s.65,12.2,2.44,12.84h0c.82-2,1.34-4,.54-4.27-1.8-.64-2.44-12.84-2.44-12.84s-4.1-14.36-3.36-18.28-3.34-13.15-3.34-13.15l-1.67-11.09a30.61,30.61,0,0,1-4.7-20.89l-.66-17.15s-6.23-33-7.58-49.82c-.87-10.74-1.31-25.43-1.51-34.59,0-1.66-.06-3.13-.09-4.37l-.61.09s0,3.4.16,8.55c.2,9.16.64,23.85,1.5,34.59,1.36,16.77,7.59,49.82,7.59,49.82l.66,17.15a30.61,30.61,0,0,0,4.7,20.89L822,505.5s4.08,9.22,3.34,13.15S828.68,536.93,828.68,536.93Z" transform="translate(-1.25 0)"/><path d="M893.17,574.8a20.72,20.72,0,0,1-3.7-8.26c-2.11,2,.69,9.6,3.16,12.53,2.6,3.09,21.06,4.33,24.37-1.64l-.13-3.37C912.28,579,895.63,577.74,893.17,574.8Z" transform="translate(-1.25 0)"/><path d="M919.28,553.8a34.09,34.09,0,0,0-2.27,5.4l.09,2.48c.37-.92.9-2.15,1.64-3.61a10.66,10.66,0,0,0,.6-4.41Z" transform="translate(-1.25 0)"/><path d="M893.6,557.59a34.16,34.16,0,0,0,1.58-4.27s-3,.82-8-4.65c-3.63-4-4.13-11.75-3.83-16.85-.77,3-1.7,15.65,3.29,21.12C889.93,556.52,892.33,557.4,893.6,557.59Z" transform="translate(-1.25 0)"/><path d="M882.87,518.74a96.26,96.26,0,0,1,.76,10.46,11.41,11.41,0,0,1,.3-1.65c.77-3-.51-13.08-.51-13.08s-.1-7.08-1.6-9.33-5-15.21-5-15.21-.17-4.42-2.74-6.62-4.5-11.16-4.5-11.16a11.62,11.62,0,0,1-2.06-7.54c.36-4.44-3.36-9.07-3.36-9.07l-6.76-18.87-6.21-14.1L848.33,431v2.69l2.33-6.85,6.21,14.1,6.74,18.86s3.72,4.63,3.36,9.07a11.56,11.56,0,0,0,2.06,7.54s1.93,9,4.5,11.16,2.73,6.62,2.73,6.62,3.51,13,5,15.21S882.87,518.74,882.87,518.74Z" transform="translate(-1.25 0)"/></g><path d="M885.2,192.87l-1.08,6.51.19,2.87.14,2.12-7.35,1-.89-1.5h0c-1.63-2.71-5-8.22-6.08-9-1.4-1.09-4.53-19-1.57-18a7.76,7.76,0,0,1,4.26,3.56S887.4,181.55,885.2,192.87Z" transform="translate(-1.25 0)" style="fill:#ffcdd3"/><path d="M884.45,204.37l-7.35,1-.89-1.5h0a6.52,6.52,0,0,1,8.1-1.66Z" transform="translate(-1.25 0)" style="opacity:0.10000000149011612;isolation:isolate"/><path d="M886.4,207.8l-9.64,2.63L876.5,209l-.7-3.88s3.65-5.28,9.37-1.64l.56,2Z" transform="translate(-1.25 0)" style="fill:#dce6f2"/><path d="M728.31,199.62l-10.17,6s-.43-.8-1-1.92c-1.07-2-2.66-5.1-3.11-6.2-.68-1.69-5.1-3.7-5.1-3.7-11.27-10,1.34-19.39,1.34-19.39,6.32-14.06,14.67,4.12,14.67,4.12s1.44,9.69.71,10.38-.62,3.34-.62,3.34a39.37,39.37,0,0,1,2.73,5.85C728.12,199,728.31,199.62,728.31,199.62Z" transform="translate(-1.25 0)" style="fill:#ffcdd3"/><path d="M728.31,199.62l-10.17,6s-.43-.8-1-1.92c1.41-1.28,6.45-5.7,8.16-5.57a12.64,12.64,0,0,0,2.46,0C728.12,199,728.31,199.62,728.31,199.62Z" transform="translate(-1.25 0)" style="opacity:0.10000000149011612;isolation:isolate"/><path d="M729.49,202.72,718,208.92l-.33-2.5-.23-1.73s6.54-6.05,8.55-5.91a10.78,10.78,0,0,0,3-.12l.22,2.09Z" transform="translate(-1.25 0)" style="fill:#dce6f2"/><path d="M858.56,236.8s-50.66,7.7-41.27,4.25c6.54-2.42,9-6.73,9.38-11.41.29-3.93-.87-8.12-2.35-11.71a51.25,51.25,0,0,0-4.9-9s38.07-22.89,31-3.14a31.12,31.12,0,0,0-1.85,9.3,26.18,26.18,0,0,0,1.36,9.29A27.74,27.74,0,0,0,858.56,236.8Z" transform="translate(-1.25 0)" style="fill:#ffcdd3"/><path d="M850.46,205.8a31.12,31.12,0,0,0-1.85,9.3c-3.54,3.22-7.57,3.17-12.73,3.37-4,.15-8.32,1.28-11.56-.51a51.25,51.25,0,0,0-4.9-9S857.49,186.06,850.46,205.8Z" transform="translate(-1.25 0)" style="opacity:0.10000000149011612;isolation:isolate"/><circle cx="833.19" cy="198.81" r="21.06" style="fill:#ffcdd3"/><path d="M858.56,236.8s-50.66,7.7-41.27,4.25c6.54-2.42,9-6.73,9.38-11.41,2.43-2.85,7.44-5,10.67-6.2a15.18,15.18,0,0,1,9.21-.5,13,13,0,0,1,3.42,1.42A27.77,27.77,0,0,0,858.56,236.8Z" transform="translate(-1.25 0)" style="opacity:0.10000000149011612;isolation:isolate"/><path d="M886.4,207.8l-9.64,2.63L876.5,209a8.62,8.62,0,0,1,9.23-3.56Z" transform="translate(-1.25 0)" style="opacity:0.10000000149011612;isolation:isolate"/><path d="M729.49,202.72,718,208.92l-.33-2.5a85.29,85.29,0,0,1,11.58-5.62Z" transform="translate(-1.25 0)" style="opacity:0.10000000149011612;isolation:isolate"/><path d="M883.62,364.28c-19.58,3.87-47.47,9-52,7.81-3.74-1-15.52-.41-25.77.34-.11-5.14-.15-8.55-.15-8.55L881.77,353A63.47,63.47,0,0,0,883.62,364.28Z" transform="translate(-1.25 0)" style="opacity:0.10000000149011612;isolation:isolate"/><path d="M903.1,358.9s-64.46,13.63-71.51,11.78-42.71,1.82-42.71,1.82c-15.67,11.4-9.57-4.77-9.57-4.77s-1.73-8.25,0-15.05a91.92,91.92,0,0,0,2.07-15.13s-.76-10.59,1.09-13.14,3.47-20.32,3.47-20.32,1.3-12.09,1-14.74a96.23,96.23,0,0,1,.15-10.09l1.8-12.46c-13.33-1.26-54.59-24.46-54.59-24.46-2.27-8.23-18-27.1-18-27.1a20.48,20.48,0,0,0-1.42-4.73c-1.17-2.79,14.53-9.06,14.53-9.06s12.4,14,15,17.84S755.8,230,755.8,230a8.51,8.51,0,0,1,3.91.35l.2.06h0a31.41,31.41,0,0,1,8.09,4.24,15.37,15.37,0,0,1,10.94,3.65s7.21-1.34,8.49-.15,7.43-.28,7.43-.28,5.68-13.33,9.89-9.68,21.47,2.8,21.47,2.8c2.18-3.14,7.69-5.55,11.15-6.81a15.18,15.18,0,0,1,9.21-.51,11.71,11.71,0,0,1,3.71,1.62l10.86,9.85s2.86-4,2.47-4.88,3.48-1.72,3.48-1.72,5.06-1.79,7-2.4,3.78,1.44,3.95,1.61c-.08-.22-1.57-4.45-1.18-7.74s-2.37-6.28-2.37-6.28c5.61-15.44,20.06-3.25,20.06-3.25s1.92,8.25.62,11.49,1.8,9.84,1.51,11.62.89,4.75,1,8.11-1.39,9.79-2.34,12.66-9.2,9.56-9.2,9.56S886,274,882.52,280s-.42,25.87-.42,25.87,4.14,15.42,8.75,20.2S903.1,358.9,903.1,358.9Z" transform="translate(-1.25 0)" style="fill:#3f3d56"/><path d="M804,246.2s-2.17-5.76-4-6.22a42.63,42.63,0,0,1-5.21-2.1l1-2.22s6.71,1.56,7.85,3.47S804,246.2,804,246.2Z" transform="translate(-1.25 0)" style="opacity:0.10000000149011612;isolation:isolate"/><path d="M768,234.66c-.29,1.78-16,4-16,4l7.65-8.29h0l.2.06h0A31.74,31.74,0,0,1,768,234.66Z" transform="translate(-1.25 0)" style="opacity:0.10000000149011612;isolation:isolate"/><circle cx="720.29" cy="212.14" r="1.42" style="fill:#575988"/><circle cx="722.21" cy="214.9" r="1.42" style="fill:#575988"/><circle cx="724.08" cy="217.44" r="1.42" style="fill:#575988"/><circle cx="726.04" cy="220.2" r="1.42" style="fill:#575988"/><circle cx="892.7" cy="213.63" r="1.15" style="fill:#575988"/><circle cx="892.98" cy="216.23" r="1.15" style="fill:#575988"/><circle cx="893.23" cy="218.83" r="1.15" style="fill:#575988"/><path d="M806,294.11c-.17-.2,41.62,48.6,71.45,18.32C877.4,312.43,828.77,320.94,806,294.11Z" transform="translate(-1.25 0)" style="opacity:0.10000000149011612;isolation:isolate"/><path d="M784.07,321.16s23.88-.27,26.64,6.49l.27,7.14a4.56,4.56,0,0,1-4.44.17c-2.45-1.2-17.15-8-22.1-4.25Z" transform="translate(-1.25 0)" style="opacity:0.10000000149011612;isolation:isolate"/><path d="M784.52,321.14s22.83-.26,25.47,6.19l.26,6.81a4.4,4.4,0,0,1-4.25.16c-2.34-1.15-16.4-7.6-21.13-4.05Z" transform="translate(-1.25 0)" style="fill:#656691"/><path d="M795.1,268.87A76.42,76.42,0,0,0,805,284.38a62.12,62.12,0,0,0,15,13.42S795.62,272.13,795.1,268.87Z" transform="translate(-1.25 0)" style="opacity:0.10000000149011612;isolation:isolate"/><path d="M786.23,241.46s4.64,17,15.12,22.46Z" transform="translate(-1.25 0)" style="opacity:0.10000000149011612;isolation:isolate"/><path d="M780.2,243.43c-.12-.32-3,13.72,14,20.76C794.23,264.19,787,262.05,780.2,243.43Z" transform="translate(-1.25 0)" style="opacity:0.10000000149011612;isolation:isolate"/><path d="M883.89,227.9c-.26,0,8.48,5.11,10.89,7.55C894.78,235.45,888.92,227.35,883.89,227.9Z" transform="translate(-1.25 0)" style="opacity:0.10000000149011612;isolation:isolate"/><path d="M829.48,218.1a3.31,3.31,0,0,0,3.44,3.18l.31,0c6.43.15,13.12.18,19-2.52a7.11,7.11,0,0,0,2.81-2c1-1.33,1.14-3.09,1.51-4.72.71-3.17,2.37-6,3.54-9.08a30.07,30.07,0,0,0,1.42-16.13,10.64,10.64,0,0,0-1.78-4.63c-1.8-2.37-4.94-3.23-7.26-5.08s-3.89-4.75-6.57-6.1c-2.42-1.22-5.31-1-8-.4a41.84,41.84,0,0,0-14.6,6.14c-1.49,1-3.12,2.13-4.89,1.87-1.55-.23-2.71-1.48-3.75-2.65a19.63,19.63,0,0,0-1.22,9.23,4,4,0,0,1,0,1.38,4.21,4.21,0,0,1-.93,1.49c-1.51,1.9-2.39,4.85-.75,6.64.71.79,1.77,1.19,2.47,2,1.24,1.43.92,3.57,1,5.46a2.23,2.23,0,0,0,3.16,2.37,7.13,7.13,0,0,1,2.75-.37,4.61,4.61,0,0,1,2.48,1.76C826.75,209.52,828.06,213.62,829.48,218.1Z" transform="translate(-1.25 0)" style="fill:#2d293d"/><g style="opacity:0.10000000149011612"><path d="M855.65,215.05a7.14,7.14,0,0,1-2.82,2c-5.84,2.7-12.52,2.68-19,2.52a3.31,3.31,0,0,1-3.73-2.83,1.55,1.55,0,0,1,0-.31c-1.41-4.49-2.73-8.59-5.84-12.24a4.58,4.58,0,0,0-2.47-1.76,7.38,7.38,0,0,0-2.76.37,2.74,2.74,0,0,1-2.62-.52,2.84,2.84,0,0,1-.54-1.85c0-1.89.28-4-1-5.46-.69-.8-1.76-1.2-2.47-2a4.16,4.16,0,0,1-.57-4.21c-1.05,1.83-1.45,4.14-.08,5.65.71.78,1.78,1.18,2.47,2,1.24,1.43.93,3.57,1,5.47a2.76,2.76,0,0,0,.54,1.84,2.71,2.71,0,0,0,2.62.52,7.18,7.18,0,0,1,2.76-.37,4.58,4.58,0,0,1,2.47,1.76c3.11,3.66,4.42,7.75,5.84,12.24a4.44,4.44,0,0,0,1.75,2.78,4.57,4.57,0,0,0,2,.37c6.43.15,13.12.17,19-2.53a7.25,7.25,0,0,0,2.82-2,5.72,5.72,0,0,0,.84-1.74A3.4,3.4,0,0,1,855.65,215.05Z" transform="translate(-1.25 0)"/><path d="M813.53,186a3.07,3.07,0,0,0,.6-1.09,4,4,0,0,0,0-1.38,19.59,19.59,0,0,1,.7-7.65l-.13-.14a19.63,19.63,0,0,0-1.22,9.23A5.93,5.93,0,0,1,813.53,186Z" transform="translate(-1.25 0)"/></g><path d="M826.22,231s26.42,2.48,28.63-1.57" transform="translate(-1.25 0)" style="opacity:0.10000000149011612;isolation:isolate"/><path d="M876.9,218.16s14.6-.54,18,4.81" transform="translate(-1.25 0)" style="opacity:0.10000000149011612;isolation:isolate"/><path d="M263.4,343.26a60.62,60.62,0,0,1-1-9.21c0-3.7-5-7-5-7s-3.11-7.2-5.15-8.25-8.47-10.48-8.47-10.48a8.52,8.52,0,0,0-1.93-5.08,71.73,71.73,0,0,1-5.24-7.91h0c-.86-1.06-.43-1.8-1.72-7.94q-.1-.48-.24-.93a1.38,1.38,0,0,0-.13-.39A10.39,10.39,0,0,0,237,275.33a4.44,4.44,0,0,0-1.23-1.9c-1.46-1.19-3.79-.7-5.29-1.83l1.59-7.06c.39-1.72.59-3.92-.93-4.85a7.94,7.94,0,0,0-1.78-.6c-2.62-.83-4.09-3.59-4.76-6.23a21.36,21.36,0,0,1-.52-7.8c.29-2.5,1-4.94,1.3-7.45a20.6,20.6,0,0,0-3.17-13.26A10.28,10.28,0,0,0,218,220.4c-1.61-.72-3.48-.81-5-1.76-3.22-2-3.06-6.89-5.62-9.7s-7.11-2.78-10.85-1.82-7.45,2.61-11.29,2.18c-2.47-.27-4.79-1.39-7.26-1.65a7.25,7.25,0,0,0-2.13.1l0-.09c-1.84.33-3.52,1.35-3.95,3.09a4.46,4.46,0,0,0-.12,1.26c0,1,.24,2.06.26,3a2.92,2.92,0,0,1-.7,2.13c-.49.53-1.22.81-1.7,1.35a2.2,2.2,0,0,0-.63,1.59c0,1.54,1.92,2.89,3.21,3.51h0c-.35.35-.69.71-1,1.08a22.69,22.69,0,0,0-5.63,15.13,23.06,23.06,0,0,0,14,21.11c-.06.19-.11.37-.18.56a31.52,31.52,0,0,1-1.26,3.27,6.48,6.48,0,0,0-5.43.6c-2.47,1.69-7.29,1.59-8.58,1.27s-14.69-2-15.76-1.59-3.22-1.48-4.61,1.06-2,3.92-3.43,4.55-3.86,2.65-3.54,3.07-3.54,3-3.54,3-3.32,3.49-5.25,3.92-6,3.07-6,3.07l-4.72,3.7s-3.54.53-2.47-1.9-1.93-5.51-1.93-5.51-6-12.17-6-14.7S102,252.05,102,252.05l-.61-.06c-.09-.26-.18-.52-.28-.79a74.64,74.64,0,0,0-3-7.51c-1.7-3.49-2.8-3.89-2.8-3.89S74.5,224.18,61,228.94s24.66,18.94,28.09,20.43c1.2.51,2.06,2.19,2.67,4.14a17.78,17.78,0,0,0-7.35,6.69s8.25,18.3,8.46,22.85,5.69,17.25,5.69,17.25,2,9.42,13.08,8.89c0,0,15.22,2.79,18.54,0s6.33-5,7.94-5.31a6.28,6.28,0,0,0,3-2.12s-5,31.74-7.5,34.5S109.27,374.67,117.09,381a157.24,157.24,0,0,0,19.62,13c.67.33,2.66-3,5.51-5.35v1.83c.05,12.68,1.7,32,4.05,36.32,3.43,6.35,2,18.63,2,18.63a14.75,14.75,0,0,0,5.8,1.39c.1.41.22.84.34,1.29,1.89,7.14,5,18.18,6.51,21.12,2.37,4.45,4.08,18.52,4.08,18.52s1.39,13.86.86,15.77c-.21.73.7,6.48,2.12,13.78h0c-.87,9.92-2.5,29.05-2.78,36h0v1.16h0a7.06,7.06,0,0,0,0,1.3,4.11,4.11,0,0,1-.14,2,31.69,31.69,0,0,1-2.33,5.54,26.55,26.55,0,0,0-1,2.69c-.85.37-1.91,1.3-2.5,3.55-1.07,4.13-2.68,15.56-2.68,15.56s-.64,7-1.93,8.57-2.57,11.53,6.54,12.8,13.08-4.84,13.08-4.84l-.32-27.7h0a4.2,4.2,0,0,0,.47-.76v-.06c.06-.14.13-.27.19-.43s0-.13.08-.2.09-.22.13-.34V572a18.18,18.18,0,0,0,.77-8.25v-1.17a1.81,1.81,0,0,1,.06-.56.21.21,0,0,1,0-.11v-.48a2.41,2.41,0,0,1,.07-.35V561c.08-.41.19-.82.3-1.25v-.09l.12-.42h0c.14-.45.29-.89.44-1.33v-.09l.15-.41v-.05c.15-.42.31-.83.47-1.22v-.11l.15-.35v-.1l.33-.78h0l2.53,7.81s1.39,5.82.64,7.19.86,7.1,1.93,7.2l-1,7.2a109.48,109.48,0,0,0-1,12c-.07.45-.14.84-.19,1.14-.69,3.68,1,9.4,1,9.4,8.47,10,18.55.78,18.55.78s1.18-5.3,0-6.35-.64-4.87-.64-4.87.53-9.42.64-16.3-5.63-12.93-5.63-12.93l-.32.29c-1-2.69-2.23-5.84-2-7.25C192.59,557.71,191,532,191,532a153.5,153.5,0,0,0,.37-20.68h0c.14-1.17.27-2.32.4-3.43.65-5.53,1.17-10.26,1.38-12.73h0v-.29c.05-.67.08-1.14.07-1.37,0-.82,0-1.85.08-2.93.21-3,.67-6.28.67-6.28l2.25-13.65s1.71-6.66,4.18-10.37l.29-.47h0c.1-.16.2-.34.3-.53v-.08l.3-.57v-.08c.35-.68.72-1.47,1.1-2.33l.09-.19.29-.66.11-.26.29-.66c0-.09.07-.17.11-.26.11-.27.22-.54.34-.81l.16-.39c.09-.2.17-.4.25-.61l.22-.52.15-.39.24-.59c0-.09.08-.18.11-.27.61-1.53,1.21-3,1.73-4.42h0c.17-.43.33-.84.48-1.24,5.49.34,9.22.65,9.22.65s1.72-12.38,1.18-20.53c-.37-5.56.66-12.56,1.35-16.43.08-.43.15-.81.21-1.15l.15.12c2.69,2.11,4.61-4.87,4.61-4.87s-.72-6.53-1.69-14.42a7.11,7.11,0,0,0-.1-.79,41.16,41.16,0,0,0,4.69.72s.86-.08,2-.23a57,57,0,0,0,10.18,4.56L244.42,382a43.36,43.36,0,0,1,3.75-6.24c1.72-2.12,7.83-8.89,7.72-10.16s2-8.57,4.18-11.85S263.52,343.8,263.4,343.26Zm-23.8,8c-2.25.95-4.4,6.24-4.5,7.83s-2.47,8.57-4.94,9.42c-2.26.78-6.6,4.76-7.29,5.4-.71.07-1.51.16-2.35.3-.94-6.68-1.87-12.2-2.47-13.32-1.71-3.18,1.89-13.33,1.89-13.33s.36-10.26,2.61-12.7,1.72-8.57,1.72-8.57.53-2.54.75-3.7,3.19,0,3.21,0h0s5.79,3.17,6.65,7.93,7.18,13,7.18,13-1,2.85,0,4.34-.2,2.49-2.45,3.44Z" transform="translate(-1.25 0)" style="fill:url(#linear-gradient-3)"/><path d="M84.55,260.87a17.29,17.29,0,0,1,17.32-8.13V265.1H94.4l-5.92-1.53Z" transform="translate(-1.25 0)" style="fill:#4c4981"/><path d="M84.55,260.87a17.29,17.29,0,0,1,17.32-8.13V265.1H94.4l-5.92-1.53Z" transform="translate(-1.25 0)" style="opacity:0.10000000149011612;isolation:isolate"/><path d="M102.4,256l-9.19,6.45s-.08-1.3-.31-3.06c-.46-3.33-1.49-8.33-3.71-9.3-3.38-1.48-41-15.63-27.66-20.38s33.79,10.83,33.79,10.83,1.06.36,2.74,3.85c.89,1.83,2,4.95,2.94,7.49C101.81,254.19,102.4,256,102.4,256Z" transform="translate(-1.25 0)" style="fill:#ae6e79"/><polygon points="174.63 265.94 175.67 265.44 178.61 268.79 176.21 273.91 172.12 272.27 173.07 268.18 174.63 265.94" style="fill:#4c4981"/><path d="M162,565.87s-2.64-.31-3.7,3.8-2.64,15.53-2.64,15.53-.63,7-1.9,8.55-2.53,11.51,6.44,12.78,12.89-4.83,12.89-4.83l-.32-27.7Z" transform="translate(-1.25 0)" style="fill:#444053"/><path d="M193.27,567.12s5.65,6,5.55,12.9-.64,16.27-.64,16.27-.52,3.8.64,4.86,0,6.33,0,6.33-9.93,9.22-18.27-.77c0,0-1.63-5.71-1-9.39s2.53-20.25,2.53-20.25Z" transform="translate(-1.25 0)" style="fill:#444053"/><path d="M207.27,440.8s-5.71,16-8.14,19.64S195,470.8,195,470.8l-2.22,13.63a74.4,74.4,0,0,0-.74,9.19c.1,3.06-5.49,47.73-5.49,47.73l-8.87,11.3s-3.91,7.92-3.28,11.2S174,572.4,172.73,574c0,0-.21,10.35-.53,12.68s1.17,8.87,0,10-16.68.63-17.11-1.27S157,584.3,157,584.3l1.37-8.87s2.74-4.86,2.11-6.44,1.16-5.28,1.27-5.6,3-5.49,2.43-7.49,3.27-44.57,3.27-44.57L178.33,435Z" transform="translate(-1.25 0)" style="fill:#ae6e79"/><path d="M207.27,440.8s-.86,2.4-2.06,5.56c-1.88,5-4.59,11.82-6.08,14.08-2.43,3.7-4.12,10.35-4.12,10.35l-2.21,13.63a74.24,74.24,0,0,0-.74,9.18c0,1.21-.81,8.93-1.85,17.81-1.6,13.59-3.64,29.93-3.64,29.93l-8.88,11.3s-.45.91-1,2.23c-1.11,2.59-2.68,6.8-2.26,9,.63,3.28-.42,8.56-1.69,10.14,0,0-.21,10.36-.53,12.67s1.17,8.88,0,10-16.68.64-17.11-1.27,1.9-11.08,1.9-11.08l1.38-8.88s2.74-4.86,2.11-6.44,1.16-5.28,1.27-5.6,3-5.49,2.43-7.5c-.41-1.53,1.7-26.54,2.72-38.4.33-3.74.55-6.16.55-6.16l9.36-65.69.75-5.3.77-5.37Z" transform="translate(-1.25 0)" style="opacity:0.10000000149011612;isolation:isolate"/><path d="M197.76,599.67c.1,1.16-14.89,2.85-17,1.58s0-17,0-17l1-7.18c-1.06-.11-2.64-5.81-1.9-7.19s-.64-7.18-.64-7.18l-2.49-7.8-1.52-4.76c-2.46-5.45-6-21-8.26-32.6-1.4-7.29-2.29-13-2.09-13.77.53-1.9-.85-15.73-.85-15.73s-1.68-14-4-18.48c-1.54-2.94-4.55-14-6.42-21.09-1-3.65-1.61-6.27-1.61-6.27s16-1.34,25.64-1.81c4.46-.21,7.58-.24,7.21.13s-.45,2.3-.43,5.09c0,7.25,1,20,2.12,23.42,1.48,4.75,3,19,2.32,20.38s-.42,10.56-.42,10.56a47.45,47.45,0,0,1,1.85,11.47,154.54,154.54,0,0,1-.37,20.64s1.59,25.66,1.16,28.09,3.38,10,3.38,11.51,1,11.51,1,11.51S197.66,598.51,197.76,599.67Z" transform="translate(-1.25 0)" style="fill:#ae6e79"/><path d="M206.1,291.18l-1.82,2-1.18,1.27-6.92,7.35-17.85,2-9.48-2.54-2.35-.62s0-4.77.43-10.49c.6-7.33,2-16.24,5.49-18.66a13.73,13.73,0,0,0,4-5.09,28.27,28.27,0,0,0,1.73-4.27c.07-.19.12-.37.18-.55a46.57,46.57,0,0,0,1.68-7.84s2.28-1.26,5.44-2.73c8.27-3.86,22.55-9.18,17.58,2.73a46.53,46.53,0,0,0-1.86,5.36c-.08.26-.15.53-.21.79-1.66,6.64-.56,10.66.68,12.88h0a8.55,8.55,0,0,0,.72,1.09,5.34,5.34,0,0,0,1.2,1.22l2.06,13.05.17,1.08Z" transform="translate(-1.25 0)" style="fill:#ae6e79"/><path d="M203,254.43c-.94,2.26.46-1.85,0,0-3.76,2.68-12.63,10.3-17.62,10.3-3.36,0-4.37-.61-7.26-1.91a46.23,46.23,0,0,0,1.86-8.39S209.9,238,203,254.43Z" transform="translate(-1.25 0)" style="opacity:0.10000000149011612;isolation:isolate"/><path d="M210.63,240.55A23,23,0,0,1,190,263.44a21.49,21.49,0,0,1-2.41.13,23,23,0,1,1,23-23h0Z" transform="translate(-1.25 0)" style="fill:#ae6e79"/><path d="M213.92,342.61l-3.27,8.56s-2.68.12-6.84.25c-14,.45-45,1-46.39-2.58a8.56,8.56,0,0,1-.48-2.84c-.19-5.5,2.38-13.95,2.38-13.95s1.48-16.9,1.48-17.63-1.27-12.62-1.27-12.62l2.53-9.5,7.08-5s3.17,4.86,5.07,5.28,4.44,2.75,4.44,2.75,6.22,3.8,8.23,1.68,17.64-11.4,17.64-11.4l8.24,9.08Z" transform="translate(-1.25 0)" style="opacity:0.10000000149011612;isolation:isolate"/><path d="M213.92,343.88l-3.27,8.56s-2.68.12-6.84.24h-.41l-6.07.16c-11.16.25-26.55.32-34.58-.85-3-.44-5-1-5.33-1.9a7.06,7.06,0,0,1-.38-1.57c0-.42-.09-.85-.1-1.27-.19-5.5,2.38-14,2.38-14s1.48-16.9,1.48-17.64S159.53,303,159.53,303l2.53-9.5,4.87-3.41,2.21-1.55a31.2,31.2,0,0,0,2.43,3.19,6.33,6.33,0,0,0,2.64,2.08c1.9.43,4.44,2.75,4.44,2.75s6.22,3.81,8.23,1.69c1.54-1.62,11-7.43,15.42-10.08l2.22-1.33,1.11,1.23,7.13,7.86Z" transform="translate(-1.25 0)" style="fill:#fff"/><path d="M102.4,256l-9.19,6.45s-.08-1.3-.31-3.06c4.54-1.91,7.3-6.15,8.1-7.51C101.81,254.19,102.4,256,102.4,256Z" transform="translate(-1.25 0)" style="opacity:0.10000000149011612;isolation:isolate"/><path d="M134.71,277.87l-2-.52s-3.28,3.48-5.18,3.9-5.91,3.07-5.91,3.07L117,288s-3.49.53-2.43-1.9-1.9-5.49-1.9-5.49-5.91-12.15-5.91-14.68-4.86-13.2-4.86-13.2-6.13,11.93-17.32,8.13c0,0,8.13,18.27,8.34,22.81s5.6,17.22,5.6,17.22,2,9.4,12.88,8.87c0,0,15,2.79,18.27,0s6.23-5,7.82-5.3a6.19,6.19,0,0,0,2.95-2.11V289.8Z" transform="translate(-1.25 0)" style="fill:#3f3d56"/><path d="M115.91,289.8s2.64,9.82,1,10.88Z" transform="translate(-1.25 0)" style="opacity:0.10000000149011612;isolation:isolate"/><path d="M203.81,352.68c-14,.45-45,1-46.39-2.57a8.56,8.56,0,0,1-.48-2.84l45.89,2.42Z" transform="translate(-1.25 0)" style="opacity:0.10000000149011612;isolation:isolate"/><path d="M207.27,440.8s-.86,2.4-2.05,5.56c-5.83-.36-13.55-.73-20.88-.78-2.6,0-5.14,0-7.53.08A56,56,0,0,0,164.5,447a32.52,32.52,0,0,1-11,1.41c-.95-3.65-1.61-6.27-1.61-6.27s16-1.34,25.64-1.81l.77-5.37Z" transform="translate(-1.25 0)" style="opacity:0.10000000149011612;isolation:isolate"/><path d="M219.62,402.18l-1.79,3.8s-.25,1.13-.57,2.93c-.68,3.86-1.7,10.85-1.34,16.4.54,8.13-1.16,20.48-1.16,20.48s-38.86-3.27-50.26,0-17,0-17,0,1.37-12.25-2-18.58c-2.32-4.34-3.94-23.6-4-36.25,0-5.85.29-10.28,1-11.17,2.32-2.86,12.25-31.37,12.25-31.37l2.26.12,6,.32,34.39,1.81,5.39.28.57,1.75Z" transform="translate(-1.25 0)" style="fill:#65617d"/><path d="M236.73,389.5l.32,3.38s-17-5.54-16.16-12.35,0-6,0-6l13.68,1.16Z" transform="translate(-1.25 0)" style="fill:#4c4981"/><path d="M236.73,389.5l.32,3.38s-17-5.54-16.16-12.35,0-6,0-6l13.68,1.16Z" transform="translate(-1.25 0)" style="opacity:0.10000000149011612;isolation:isolate"/><path d="M127.27,292.53a15.2,15.2,0,0,0,6,3.12,3.91,3.91,0,0,1-1.77-.83c-1.22-.87-2.38-1.81-3.55-2.73-.94-.74-2.13-2-3.3-2.27A18.66,18.66,0,0,0,127.27,292.53Z" transform="translate(-1.25 0)" style="opacity:0.10000000149011612;isolation:isolate"/><path d="M127.53,297a7.44,7.44,0,0,1,1.31,2.09,12.61,12.61,0,0,1-.09,6.53L126,299c-.47-1.12-1-2.24-1.52-3.32-.25-.46-1.82-2.36-1.64-2.76C123.34,291.8,127,296.35,127.53,297Z" transform="translate(-1.25 0)" style="opacity:0.10000000149011612;isolation:isolate"/><path d="M203.67,333.42a8.88,8.88,0,0,0,5-2.31c-2.81.35-5.46,1.45-8.23,2a12.24,12.24,0,0,1-7.67-.7C195.92,334,200.25,334,203.67,333.42Z" transform="translate(-1.25 0)" style="opacity:0.10000000149011612;isolation:isolate"/><path d="M195.74,314.09a1.88,1.88,0,0,1-1.43-.36q-3.17-1.8-6.24-3.78a37.65,37.65,0,0,1-6.1-4.22C186.16,309.52,190.06,312.72,195.74,314.09Z" transform="translate(-1.25 0)" style="opacity:0.10000000149011612;isolation:isolate"/><path d="M201.6,336.49a13.46,13.46,0,0,0,3.29-.26,4.45,4.45,0,0,0,2.71-1.78,1.54,1.54,0,0,0-1.15.18,19.34,19.34,0,0,1-10.6,1.27C197.56,336.63,199.77,336.48,201.6,336.49Z" transform="translate(-1.25 0)" style="opacity:0.10000000149011612;isolation:isolate"/><path d="M181.59,385.52a33.75,33.75,0,0,1-6.75,1.33,41.39,41.39,0,0,1-5.34-.1l-8.65-.55-4.33-.28c-.51,0-2.6,0-1.57-1,.52-.49,3.41-.18,4.15-.2,1.44,0,2.87-.07,4.3-.08,2.86,0,5.73,0,8.59.18Q176.8,385,181.59,385.52Z" transform="translate(-1.25 0)" style="opacity:0.10000000149011612;isolation:isolate"/><path d="M171.58,389.8c-1.47-.06-3.36.82-4.87,1a32.07,32.07,0,0,1-5.09.21,28.54,28.54,0,0,1-9.83-2C158.4,389.34,165,389.54,171.58,389.8Z" transform="translate(-1.25 0)" style="opacity:0.10000000149011612;isolation:isolate"/><path d="M153.08,394.33a15.51,15.51,0,0,1,1.89.51c3.64,1.05,7.52.13,11.19-.78a6.63,6.63,0,0,1-4.25,2.36,20,20,0,0,1-8.29.3c-.87-.17-3-.48-3.48-1.38C149.48,394,152.27,394.2,153.08,394.33Z" transform="translate(-1.25 0)" style="opacity:0.10000000149011612;isolation:isolate"/><path d="M173.53,401.14a30,30,0,0,1,3.23.84c4.1,1,8.36-.38,12.48-1.32a57.69,57.69,0,0,1,15.11-1.4c-.91,0-2.35.8-3.24,1.07-1.17.35-2.35.67-3.53,1a70.41,70.41,0,0,1-7.06,1.38,72.28,72.28,0,0,1-14.48.63c-2.21-.12-6,.11-7.94-1A8.76,8.76,0,0,1,173.53,401.14Z" transform="translate(-1.25 0)" style="opacity:0.10000000149011612;isolation:isolate"/><path d="M175.06,270.89s.21,9.73-1.38,14.16c-.49,1.38-1.27,3.93-2.11,6.79-.93,3.17-1.94,6.72-2.72,9.47s-1.29,4.65-1.29,4.65-3.57,29.06-4.5,42.9v.72c-.05.78-.14,1.59-.26,2.43-2.06,13.75-13.92,34.95-17.9,36.65a12,12,0,0,0-3.35,2.3c0-5.85.29-10.28,1-11.17,2.32-2.86,12.25-31.37,12.25-31.37l2.26.12c-.05-.42-.09-.85-.1-1.27-.19-5.5,2.38-14,2.38-14s1.48-16.9,1.48-17.64-1.27-12.57-1.27-12.57l2.53-9.5,4.87-3.41c.6-7.33,2.05-16.24,5.49-18.66a13.73,13.73,0,0,0,4-5.09c.69.09-.56-.51-.56-.51Z" transform="translate(-1.25 0)" style="opacity:0.10000000149011612;isolation:isolate"/><path d="M176.92,265.44a6.34,6.34,0,0,0-5.35.61c-2.43,1.68-7.18,1.58-8.45,1.26s-14.47-2-15.52-1.58-3.17-1.48-4.54,1-2,3.91-3.38,4.55-3.81,2.64-3.49,3.06-3.48,3-3.48,3l7.7,25s-5,31.68-7.39,34.42-24,38.34-16.26,44.68a156.88,156.88,0,0,0,19.32,13c.85.42,3.91-5.28,8.14-7.08s17.32-25.61,18.18-39.09,4.54-43.62,4.54-43.62,4.54-16.48,6.13-20.91,1.33-14.17,1.33-14.17Z" transform="translate(-1.25 0)" style="fill:#3f3d56"/><path d="M219.62,402.18l-1.79,3.8s-.25,1.13-.57,2.93a1.62,1.62,0,0,1-.91-.39c-2.64-2.12-18.17-18.06-18.9-32.22-.55-10.44-.29-19.43-.12-23.44.06-1.26.1-2,.11-2.19h0s12-14.58,10.66-19.75-4.54-32.85-4.54-32.85l-.47-3.63-.8-6.13-1.89-14.86,2,.46a5.34,5.34,0,0,0,1.2,1.22l2.06,13.05,7.13,7.86L214,343.88l-3.27,8.56s-2.68.12-6.84.24h-.41Z" transform="translate(-1.25 0)" style="opacity:0.10000000149011612;isolation:isolate"/><path d="M226.28,323.18s-3-1.16-3.17,0-.74,3.69-.74,3.69.52,6.13-1.69,8.56-2.57,12.67-2.57,12.67-3.55,10.14-1.87,13.31c.61,1.15,1.56,6.92,2.51,13.82.6,4.31,1.2,9.06,1.74,13.39,1,7.89,1.67,14.4,1.67,14.4s-1.9,7-4.54,4.86-18.17-18.08-18.91-32.21c-.52-9.95-.31-18.58-.14-22.84.08-1.81.14-2.83.14-2.83s12-14.57,10.67-19.74-4.54-32.85-4.54-32.85l-.56-4.27-.59-4.6-.13-1-1.91-14.74h0c.34.07,12.19,2.75,13.75,4.31s11.19,3.8,11.19,3.8a8.47,8.47,0,0,1,6,6.16c.09.29.16.6.23.92,1.27,6.13.85,6.86,1.7,7.92S226.28,323.18,226.28,323.18Z" transform="translate(-1.25 0)" style="fill:#3f3d56"/><path d="M220.49,388.62c-4.34-.84-10.73-2.85-10.59-7.25.14-4.13,5.1-5.61,8.85-6.14C219.4,379.54,220,384.29,220.49,388.62Z" transform="translate(-1.25 0)" style="opacity:0.10000000149011612;isolation:isolate"/><path d="M233.88,386.44c-.17.37-.89.69-1.84,1a48.63,48.63,0,0,1-7,1.14s-14.68-1.16-14.47-7.81c.15-4.78,6.78-6,10.51-6.33,1.46-.13,2.48-.11,2.48-.11S234.52,385.07,233.88,386.44Z" transform="translate(-1.25 0)" style="fill:#ae6e79"/><path d="M233.88,386.44c-.17.37-.89.69-1.84,1-3.83-5.12-9.17-11.69-11.78-12.27,0,0,.3-.29.79-.73,1.46-.13,2.48-.11,2.48-.11S234.52,385.07,233.88,386.44Z" transform="translate(-1.25 0)" style="opacity:0.10000000149011612;isolation:isolate"/><path d="M230.18,295.3l4.33.63a75.35,75.35,0,0,0,5.18,7.92,8.61,8.61,0,0,1,1.9,5.07s6.34,9.4,8.34,10.46,5.07,8.24,5.07,8.24,5,3.27,5,7a60.16,60.16,0,0,0,.95,9.18c.1.53-.74,7.08-2.86,10.35S253.87,364.71,254,366s-5.92,8-7.61,10.14a42.89,42.89,0,0,0-3.69,6.23l-5.6,10.56s-11.83-17.42-16.16-18.37c0,0,4.86-4.65,7.29-5.49s4.75-7.82,4.86-9.4,2.21-6.87,4.43-7.82,3.38-1.9,2.43-3.38,0-4.33,0-4.33-6.23-8.24-7.08-13-6.54-7.92-6.54-7.92l-3.28-8Z" transform="translate(-1.25 0)" style="fill:#3f3d56"/><path d="M245.89,334.72a13.69,13.69,0,0,1,8.53-3.23c-2,.35-4.12.78-5.58,2.18a12.52,12.52,0,0,0-1.54,2c-.51.72-4.58,5.9-5.23,5.09C241.1,339.52,245.07,335.42,245.89,334.72Z" transform="translate(-1.25 0)" style="opacity:0.10000000149011612;isolation:isolate"/><path d="M236.33,329.72a3.65,3.65,0,0,0,3-2.13,12.16,12.16,0,0,0,.94-3.75,56,56,0,0,1,1.31-6.41,4,4,0,0,0,.21-1.34,3.64,3.64,0,0,0-.39-1.29,9.16,9.16,0,0,0-.92-1.92c-.79.89-1,2.88-1.33,4q-.59,2.16-1.11,4.32C237.87,322,236.4,329.72,236.33,329.72Z" transform="translate(-1.25 0)" style="opacity:0.10000000149011612;isolation:isolate"/><path d="M232.59,287.09a9.42,9.42,0,0,1-1.46,1.5c-1.69,1.37-4,2.53-4.24,4.69a5.1,5.1,0,0,1-.25,2.09c-.55.94-1.91.87-3,.68a5.36,5.36,0,0,1-2.53-.93c-1.13-1-1.24-2.7-2.1-3.91a5.33,5.33,0,0,0-4.28-1.92c-1.62-.05-3.23.31-4.84.39a13.41,13.41,0,0,1-3.1-.21c-.34-.06-.67-.13-1-.21a13.12,13.12,0,0,1-2.11-.72,9.18,9.18,0,0,1-1-.48,13.48,13.48,0,0,1-3-2.07c-1.58-1.46-2.89-3.45-2.76-5.61a35.68,35.68,0,0,1,.9-3.84c.65-3.73-1.83-7.26-4.52-9.93-1.07-1.05-2.21-2.09-3.28-3.17a15.75,15.75,0,0,1-3.87-5.5,16.69,16.69,0,0,1-.69-6.88,46.6,46.6,0,0,0,.21-7.09c-.8-8.4-8-14.83-15.14-18.34l-.31-.16a23,23,0,0,1,34.34,30.6,22.64,22.64,0,0,1-3.34,3.08c-.08.26-.15.53-.21.79-1.66,6.64-.56,10.66.68,12.88h0c.34.07,12.19,2.75,13.75,4.31s11.19,3.8,11.19,3.8A8.45,8.45,0,0,1,232.59,287.09Z" transform="translate(-1.25 0)" style="opacity:0.10000000149011612;isolation:isolate"/><path d="M168.63,219.35c.47-.54,1.19-.82,1.67-1.35,1.49-1.62,0-4.27.55-6.41.59-2.38,3.5-3.42,5.94-3.16s4.72,1.37,7.15,1.64c3.78.43,7.44-1.21,11.13-2.17s8.14-1,10.69,1.81,2.36,7.64,5.52,9.69c1.46.94,3.3,1,4.88,1.75a10.07,10.07,0,0,1,4.13,3.95,20.69,20.69,0,0,1,3.11,13.23c-.26,2.5-1,4.94-1.28,7.44a21.69,21.69,0,0,0,.51,7.78c.67,2.63,2.11,5.39,4.7,6.22a7.7,7.7,0,0,1,1.75.6c1.49.92,1.3,3.12.92,4.83l-1.6,7.05c1.48,1.13,3.77.64,5.21,1.83a4.17,4.17,0,0,1,1.21,1.9,10.39,10.39,0,0,1-3.1,11.34c-1.69,1.38-4,2.53-4.24,4.7a5.07,5.07,0,0,1-.25,2.08c-.55.94-1.91.87-3,.68a5.09,5.09,0,0,1-2.52-.93c-1.14-1-1.24-2.7-2.1-3.91a5.33,5.33,0,0,0-4.28-1.92c-1.63,0-3.23.31-4.85.39a14.26,14.26,0,0,1-10.21-3.69,7.42,7.42,0,0,1-2.77-5.6,36.43,36.43,0,0,1,.9-3.85c.65-3.72-1.83-7.26-4.51-9.92s-5.84-5.13-7.15-8.68c-1.64-4.4,0-9.3-.49-14-.8-8.4-8-14.83-15.13-18.33C169.49,223.55,166.77,221.46,168.63,219.35Z" transform="translate(-1.25 0)" style="fill:#444053"/><path d="M225.1,291.87c-1.13-1-1.23-2.69-2.09-3.91a5.39,5.39,0,0,0-4.29-1.91c-1.62-.05-3.22.31-4.84.39a14.34,14.34,0,0,1-10.21-3.64c-1.59-1.46-2.89-3.46-2.77-5.61a35.68,35.68,0,0,1,.9-3.84c.65-3.73-1.83-7.26-4.52-9.93s-5.83-5.13-7.15-8.68c-1.63-4.39,0-9.3-.48-14-.8-8.4-8-14.84-15.14-18.34-1.67-.82-4.39-2.9-2.53-5,.47-.54,1.18-.81,1.67-1.34,1.49-1.62,0-4.28.55-6.42a3.37,3.37,0,0,1,.54-1.17,4.56,4.56,0,0,0-3.89,3.07c-.53,2.14.94,4.8-.55,6.42-.48.53-1.2.8-1.67,1.34-1.86,2.12.86,4.2,2.54,5,7.17,3.51,14.33,9.94,15.13,18.34.44,4.66-1.15,9.57.49,14,1.31,3.55,4.46,6,7.15,8.68s5.16,6.2,4.51,9.93a36.25,36.25,0,0,0-.9,3.84c-.12,2.15,1.18,4.15,2.77,5.61a14.26,14.26,0,0,0,10.21,3.69c1.62-.08,3.22-.44,4.85-.39a5.38,5.38,0,0,1,4.28,1.91c.86,1.22,1,2.95,2.1,3.91a5.09,5.09,0,0,0,2.52.93c1.08.2,2.44.27,3-.68a2.4,2.4,0,0,0,.24-1.24A4.84,4.84,0,0,1,225.1,291.87Z" transform="translate(-1.25 0)" style="opacity:0.10000000149011612;isolation:isolate"/><g style="opacity:0.20000000298023224"><path d="M410,454.51l21.18,40.06c.63,1.2-1.1,3.33-3.87,4.8L321.58,555.25c-2.76,1.46-5.52,1.68-6.15.5l-21.18-40.06c-.63-1.2,1-3.6,3.73-5.06l105.69-55.88C406.44,453.27,409.31,453.31,410,454.51Z" transform="translate(-1.25 0)" style="fill:#ffc107"/></g><rect x="299.02" y="490.84" width="113.4" height="3.86" transform="translate(-190.33 223.42) rotate(-27.87)" style="fill:#ffc107"/><rect x="303.42" y="499.15" width="113.4" height="3.86" transform="translate(-193.71 226.44) rotate(-27.87)" style="fill:#ffc107;opacity:0.20000000298023224;isolation:isolate"/><rect x="307.81" y="507.47" width="113.4" height="3.86" transform="translate(-197.09 229.46) rotate(-27.87)" style="fill:#ffc107;opacity:0.20000000298023224;isolation:isolate"/><rect x="312.22" y="515.8" width="113.4" height="3.86" transform="translate(-200.47 232.48) rotate(-27.87)" style="fill:#ffc107;opacity:0.20000000298023224;isolation:isolate"/><path d="M368.06,514c-.1,13.41,27.65,16.26,27.65,16.26l7.09,1.12,3.17.51,1.32-13.11s-1.45-.22-3.27-.64c-2.68-.63-6.16-1.71-6.89-3.23C395.91,512.33,368.16,500.54,368.06,514Z" transform="translate(-1.25 0)" style="fill:#ee8e9e"/><path d="M485.65,468s9.45-2.74,7.12,24.09S473,535.91,473,535.91s-20.13,8.84-29.17,7.42-15.65-1.73-15.65-1.73a23,23,0,0,0-9.15-2.44c-5.08-.2-15.75-3.35-16-4.37s2.65-16,1.43-17.07c0,0,14.23.58,15.65,1.61s3.45.29,5,0,6.2-4.36,15.45-.8c0,0,3.15.31,4.37-.51a4.42,4.42,0,0,1,3.18-.2,8.78,8.78,0,0,0,2.2-1.12c.31-.4,2.75,0,2.75,0a1.08,1.08,0,0,0,1.44-.48,1.55,1.55,0,0,0,.08-.23,6.77,6.77,0,0,1,1.42-2.24s2.75-15.44,7.93-21.24a3.28,3.28,0,0,0,1.12-2.94C464.61,487.94,473.46,464.8,485.65,468Z" transform="translate(-1.25 0)" style="fill:#3f3d56"/></svg>
